<svg xmlns="http://www.w3.org/2000/svg" xmlns:xlink="http://www.w3.org/1999/xlink" width="1920" zoomAndPan="magnify" viewBox="0 0 1440 809.999993" height="1080" preserveAspectRatio="xMidYMid meet" version="1.2"><g id="b9fff915d2"><path style=" stroke:none;fill-rule:nonzero;fill:#016174;fill-opacity:1;" d="M 374.238281 185.691406 L 494.300781 185.691406 L 502.304688 198.5 C 505.265625 202.988281 505.265625 202.988281 508.257812 207.460938 C 511.515625 212.296875 514.757812 217.144531 517.996094 221.992188 C 518.742188 223.105469 519.484375 224.214844 520.230469 225.328125 C 524.585938 231.820312 528.847656 238.351562 532.960938 245 C 536.171875 250.164062 539.550781 255.210938 542.941406 260.261719 C 544.554688 262.671875 546.152344 265.09375 547.738281 267.519531 L 548.699219 268.984375 L 550.660156 271.976562 C 552.480469 274.757812 554.300781 277.535156 556.125 280.3125 L 557.269531 282.058594 C 561.074219 287.859375 564.882812 293.660156 568.695312 299.457031 L 572.140625 304.699219 C 575.695312 310.109375 579.253906 315.519531 582.808594 320.929688 L 588.851562 330.113281 L 590.035156 331.914062 C 594.808594 339.167969 599.554688 346.4375 604.277344 353.726562 C 609.6875 362.070312 615.234375 370.324219 620.765625 378.585938 C 622.710938 376.195312 624.5625 373.796875 626.265625 371.230469 L 627.621094 369.195312 L 629.121094 366.929688 L 630.765625 364.457031 C 637 355.074219 643.183594 345.652344 649.378906 336.242188 C 659.058594 321.539062 668.8125 306.882812 678.59375 292.246094 C 681.023438 288.605469 683.453125 284.964844 685.882812 281.320312 C 687.488281 278.910156 689.09375 276.5 690.703125 274.09375 C 694.441406 268.5 698.15625 262.890625 701.851562 257.265625 C 714.667969 237.742188 727.632812 218.316406 740.742188 198.988281 L 741.894531 197.34375 C 743.292969 195.28125 743.292969 195.28125 744.476562 192.875 C 745.988281 190.132812 747.441406 187.9375 749.632812 185.691406 C 753.40625 184.34375 757.0625 184.472656 761.015625 184.601562 C 762.160156 184.605469 763.304688 184.601562 764.449219 184.597656 C 767.539062 184.59375 770.628906 184.652344 773.71875 184.71875 C 776.957031 184.78125 780.191406 184.785156 783.425781 184.796875 C 789.546875 184.828125 795.667969 184.90625 801.789062 185 C 808.757812 185.109375 815.726562 185.160156 822.699219 185.210938 C 837.03125 185.308594 851.363281 185.480469 865.695312 185.691406 C 866.335938 216.691406 866.582031 247.664062 866.414062 278.667969 C 866.390625 283.546875 866.367188 288.425781 866.347656 293.300781 C 866.308594 302.917969 866.261719 312.53125 866.214844 322.144531 C 866.164062 332.039062 866.117188 341.929688 866.074219 351.820312 L 866.003906 367.132812 C 865.910156 388.824219 865.800781 410.519531 865.695312 432.214844 L 760.839844 432.214844 L 760.839844 346.570312 C 758.109375 349.304688 756.398438 351.535156 754.382812 354.765625 C 751.730469 358.976562 749.003906 363.144531 746.210938 367.265625 L 745.109375 368.890625 L 742.847656 372.21875 C 740.824219 375.195312 738.804688 378.167969 736.789062 381.148438 L 735.566406 382.957031 C 730.140625 390.96875 724.78125 399.027344 719.421875 407.089844 C 717.304688 410.273438 715.179688 413.460938 713.054688 416.644531 C 710.070312 421.117188 707.09375 425.59375 704.117188 430.074219 C 702.359375 432.722656 700.597656 435.371094 698.835938 438.015625 L 696.171875 442.035156 C 691.550781 448.996094 686.902344 455.917969 682.011719 462.691406 C 678.925781 466.980469 675.992188 471.359375 673.082031 475.769531 C 671.375 478.347656 669.664062 480.921875 667.953125 483.496094 L 666.824219 485.191406 C 661.78125 492.769531 656.679688 500.308594 651.582031 507.851562 C 643.960938 519.136719 636.359375 530.4375 628.832031 541.789062 C 625.945312 546.136719 623.039062 550.453125 619.96875 554.671875 L 617.566406 553.871094 C 616.414062 552.285156 615.332031 550.648438 614.316406 548.96875 C 610.796875 543.296875 607.109375 537.753906 603.394531 532.210938 C 601.816406 529.855469 600.242188 527.496094 598.664062 525.136719 L 597.746094 523.761719 C 590.78125 513.339844 583.867188 502.886719 577 492.398438 C 571.171875 483.492188 565.273438 474.632812 559.351562 465.785156 C 554.777344 458.949219 550.273438 452.074219 545.878906 445.121094 C 538.835938 433.980469 531.40625 423.097656 524.007812 412.191406 C 515.726562 399.976562 515.726562 399.976562 511.863281 393.816406 C 509.648438 390.363281 507.367188 386.957031 505.085938 383.546875 L 503.636719 381.378906 C 501.644531 378.398438 499.648438 375.417969 497.648438 372.441406 C 496.175781 370.238281 494.699219 368.039062 493.230469 365.835938 L 491.898438 363.855469 C 488.277344 358.4375 484.917969 352.933594 481.496094 347.371094 L 480.695312 624.308594 L 374.238281 624.308594 Z M 374.238281 185.691406 "/><path style=" stroke:none;fill-rule:nonzero;fill:#e12232;fill-opacity:1;" d="M 950.539062 185.691406 L 1065 185.691406 L 1065 306.550781 L 949.738281 306.550781 C 949.390625 249.425781 949.390625 249.425781 949.285156 231.359375 L 949.214844 220.710938 C 949.199219 218.328125 949.183594 215.949219 949.171875 213.570312 C 949.15625 210.542969 949.136719 207.511719 949.113281 204.480469 C 949.105469 203.367188 949.101562 202.25 949.097656 201.136719 C 949.089844 199.636719 949.078125 198.132812 949.066406 196.632812 L 949.050781 194.082031 C 949.070312 192.09375 949.070312 192.09375 948.136719 190.496094 Z M 950.539062 185.691406 "/><path style=" stroke:none;fill-rule:nonzero;fill:#03abb5;fill-opacity:1;" d="M 943.335938 482.636719 L 943.335938 624.308594 L 912.917969 624.308594 L 912.917969 534.664062 C 909.414062 539.671875 905.9375 544.679688 902.554688 549.769531 L 901.246094 551.730469 C 899.886719 553.777344 898.523438 555.828125 897.160156 557.875 L 894.472656 561.910156 C 892.703125 564.570312 890.929688 567.234375 889.160156 569.898438 C 885.078125 576.03125 880.988281 582.160156 876.902344 588.289062 C 873.128906 584.859375 870.507812 580.933594 867.742188 576.671875 L 866.257812 574.417969 C 864.699219 572.039062 863.144531 569.660156 861.59375 567.277344 L 858.515625 562.589844 C 856.035156 558.800781 853.558594 555.011719 851.085938 551.21875 C 849.730469 549.136719 848.371094 547.058594 847.007812 544.980469 L 844.589844 541.28125 L 843.476562 539.585938 C 842.070312 537.425781 840.898438 535.519531 840.082031 533.0625 L 838.480469 533.0625 L 838.875 534.429688 C 839.300781 536.347656 839.378906 538.027344 839.378906 539.992188 L 839.382812 542.25 L 839.371094 544.710938 L 839.371094 547.3125 C 839.371094 550.15625 839.367188 552.996094 839.359375 555.835938 L 839.355469 561.746094 C 839.351562 566.929688 839.347656 572.113281 839.335938 577.296875 C 839.328125 582.585938 839.324219 587.878906 839.320312 593.167969 C 839.3125 603.546875 839.300781 613.925781 839.28125 624.308594 L 808.867188 624.308594 C 808.847656 606.53125 808.832031 588.753906 808.824219 570.980469 C 808.820312 562.726562 808.816406 554.472656 808.804688 546.21875 C 808.796875 539.023438 808.792969 531.832031 808.789062 524.640625 C 808.789062 520.828125 808.785156 517.019531 808.78125 513.210938 C 808.773438 509.625 808.773438 506.039062 808.773438 502.457031 C 808.773438 501.140625 808.773438 499.824219 808.769531 498.507812 C 808.765625 496.710938 808.765625 494.914062 808.769531 493.117188 L 808.765625 490.070312 C 808.855469 487.753906 809.128906 485.6875 809.667969 483.4375 C 813.964844 483.140625 818.257812 482.921875 822.5625 482.777344 C 824.023438 482.71875 825.484375 482.636719 826.941406 482.53125 C 836.542969 481.863281 836.542969 481.863281 840.882812 483.4375 C 844.359375 486.121094 846.242188 490.011719 848.117188 493.894531 C 849.195312 496.070312 850.511719 498.0625 851.84375 500.085938 C 852.761719 501.554688 853.675781 503.027344 854.589844 504.5 L 856.09375 506.914062 C 872.054688 532.578125 872.054688 532.578125 874.964844 537.679688 L 876.101562 539.464844 L 877.703125 540.265625 L 878.242188 538.679688 C 879.664062 535.4375 881.539062 532.582031 883.453125 529.609375 L 886.074219 525.503906 L 887.472656 523.3125 C 889.425781 520.242188 891.34375 517.152344 893.257812 514.054688 C 894.265625 512.441406 895.289062 510.835938 896.324219 509.242188 C 898.992188 505.109375 901.324219 501.066406 903.304688 496.5625 C 905.320312 492.320312 907.292969 488.410156 910.535156 484.972656 C 914.25 482.582031 917.902344 482.269531 922.25 481.976562 C 929.324219 481.707031 936.292969 482.636719 943.335938 482.636719 "/><path style=" stroke:none;fill-rule:nonzero;fill:#02abb4;fill-opacity:1;" d="M 765.976562 484.660156 C 773.449219 487.773438 780.125 492.027344 786.453125 497.046875 L 785.589844 498.179688 C 783.335938 501.152344 781.136719 504.167969 778.992188 507.226562 L 777.648438 509.132812 C 776.734375 510.433594 775.824219 511.738281 774.921875 513.046875 L 773.585938 514.929688 L 772.398438 516.632812 L 771.246094 517.855469 C 768.84375 517.855469 768.84375 517.855469 766.582031 516.59375 C 765.667969 516.03125 764.753906 515.46875 763.84375 514.902344 C 755.484375 509.964844 746.8125 506.921875 737.011719 506.542969 C 733.179688 506.699219 729.882812 507.382812 726.421875 509.050781 C 724.5625 510.265625 723.207031 511.464844 721.621094 513.054688 C 720.152344 515.984375 720.515625 519.277344 720.5625 522.496094 C 720.675781 525.1875 720.675781 525.1875 722.21875 527.808594 C 729.023438 534.023438 738.328125 535.855469 746.945312 538.183594 C 758.910156 541.4375 770.277344 545.644531 779.632812 554.054688 C 784.105469 558.796875 787.261719 564.304688 789.054688 570.582031 C 790.9375 579.621094 790.761719 588.382812 788.078125 597.257812 C 785.527344 603.984375 781.832031 609.339844 776.417969 614.082031 C 769.046875 619.761719 760.5625 623.304688 751.386719 624.808594 C 735.464844 626.300781 720.289062 624.375 705.582031 617.996094 C 697.539062 614.277344 690.765625 609.167969 684 603.496094 C 685.378906 600.117188 687.769531 597.644531 690.152344 594.941406 C 693.851562 590.695312 697.425781 586.390625 700.808594 581.886719 L 702.101562 582.769531 C 703.375 583.625 704.652344 584.476562 705.933594 585.320312 C 707.222656 586.167969 708.5 587.027344 709.765625 587.90625 C 717.777344 593.171875 728.121094 596.625 737.691406 597.257812 C 743.386719 597.339844 748.367188 596.976562 753.636719 594.691406 C 756.4375 593.023438 757.484375 591.753906 759.140625 588.9375 C 760.242188 585.199219 760.046875 582.457031 759.238281 578.683594 C 758.707031 576.378906 758.707031 576.378906 757.640625 574.683594 C 756.203125 573.859375 756.203125 573.859375 754.4375 573.082031 L 752.460938 572.101562 C 745.859375 569.054688 739.136719 567.050781 732.125 565.128906 C 709.351562 558.820312 709.351562 558.820312 700.808594 550.671875 L 699.097656 549.054688 C 694.402344 544.230469 691.804688 538.78125 689.96875 532.335938 C 688.308594 524.734375 689.011719 515.265625 691.234375 507.898438 C 693.824219 501.019531 697.910156 495.71875 703.210938 490.640625 C 705.480469 488.839844 707.878906 487.242188 710.414062 485.839844 L 711.785156 485.0625 C 715.949219 482.820312 719.992188 481.699219 724.621094 480.835938 L 726.769531 480.429688 C 739.949219 478.058594 753.507812 479.769531 765.976562 484.660156 "/><path style=" stroke:none;fill-rule:nonzero;fill:#00aab4;fill-opacity:1;" d="M 1042.585938 484.238281 C 1049.28125 487.367188 1055.363281 491.476562 1060.996094 496.246094 L 1060.171875 497.335938 C 1055.273438 503.835938 1050.503906 510.425781 1045.789062 517.054688 C 1042.828125 515.945312 1040.054688 514.601562 1037.25 513.15625 C 1028.261719 508.539062 1020.878906 505.847656 1010.570312 505.847656 C 1006.5625 506.195312 1003.402344 507.023438 999.816406 508.851562 C 997.703125 510.566406 997.703125 510.566406 996.261719 512.753906 C 995.042969 516.417969 994.828125 519.632812 995.363281 523.457031 C 996.378906 526.214844 996.378906 526.214844 998.5625 528.261719 C 1005.332031 533.046875 1013.625 535.273438 1021.527344 537.410156 C 1033.707031 540.726562 1045.441406 544.921875 1054.652344 553.890625 C 1059.4375 558.9375 1062.796875 564.382812 1064.449219 571.179688 C 1066.039062 580.921875 1065.296875 590.339844 1061.980469 599.628906 C 1059.238281 605.933594 1053.941406 611.003906 1048.738281 615.351562 C 1041.816406 620.433594 1033.578125 622.980469 1025.125 624.121094 C 1010.074219 625.714844 995.160156 623.613281 981.265625 617.605469 C 973.269531 613.765625 966.300781 608.9375 959.34375 603.496094 C 959.492188 602.203125 959.492188 602.203125 960.144531 600.296875 C 961.4375 598.613281 962.789062 596.980469 964.195312 595.394531 C 964.996094 594.472656 965.792969 593.550781 966.589844 592.625 L 967.792969 591.238281 C 970.402344 588.195312 972.871094 585.035156 975.351562 581.886719 C 978.351562 582.976562 980.8125 584.359375 983.457031 586.140625 C 992.964844 592.269531 1002.578125 595.609375 1013.886719 596.234375 C 1019.5625 596.4375 1024.230469 595.910156 1029.28125 593.292969 C 1031.71875 591.203125 1033.164062 589.585938 1034.582031 586.6875 C 1035.132812 583.238281 1034.804688 580.289062 1033.882812 576.933594 C 1031.230469 573.425781 1028.140625 571.714844 1024.175781 569.878906 C 1018.144531 567.503906 1011.90625 565.675781 1005.675781 563.90625 C 993.59375 560.457031 983.160156 556.355469 973.8125 547.632812 C 969.347656 543.007812 966.914062 537.394531 965.253906 531.226562 C 964.035156 522.625 964.136719 513.175781 967.347656 505.050781 L 967.964844 503.378906 C 970.769531 496.871094 976.425781 491.3125 981.863281 486.882812 C 999.03125 474.863281 1023.964844 476.605469 1042.585938 484.238281 "/><path style=" stroke:none;fill-rule:nonzero;fill:#18cddb;fill-opacity:1;" d="M 1042.585938 484.238281 C 1049.28125 487.367188 1055.363281 491.476562 1060.996094 496.246094 L 1060.171875 497.335938 C 1055.273438 503.835938 1050.503906 510.425781 1045.789062 517.054688 C 1042.828125 515.945312 1040.054688 514.601562 1037.25 513.15625 C 1028.261719 508.539062 1020.878906 505.847656 1010.570312 505.847656 C 1006.5625 506.195312 1003.402344 507.023438 999.816406 508.851562 C 997.703125 510.566406 997.703125 510.566406 996.261719 512.753906 C 995.042969 516.417969 994.828125 519.632812 995.363281 523.457031 C 996.378906 526.214844 996.378906 526.214844 998.5625 528.261719 C 1005.332031 533.046875 1013.625 535.273438 1021.527344 537.410156 C 1033.707031 540.726562 1045.441406 544.921875 1054.652344 553.890625 C 1059.4375 558.9375 1062.796875 564.382812 1064.449219 571.179688 C 1066.039062 580.921875 1065.296875 590.339844 1061.980469 599.628906 C 1059.238281 605.933594 1053.941406 611.003906 1048.738281 615.351562 C 1041.816406 620.433594 1033.578125 622.980469 1025.125 624.121094 C 1010.074219 625.714844 995.160156 623.613281 981.265625 617.605469 C 973.269531 613.765625 966.300781 608.9375 959.34375 603.496094 C 959.492188 602.203125 959.492188 602.203125 960.144531 600.296875 C 961.4375 598.613281 962.789062 596.980469 964.195312 595.394531 C 964.996094 594.472656 965.792969 593.550781 966.589844 592.625 L 967.792969 591.238281 C 970.402344 588.195312 972.871094 585.035156 975.351562 581.886719 C 978.351562 582.976562 980.8125 584.359375 983.457031 586.140625 C 992.964844 592.269531 1002.578125 595.609375 1013.886719 596.234375 C 1019.5625 596.4375 1024.230469 595.910156 1029.28125 593.292969 C 1031.71875 591.203125 1033.164062 589.585938 1034.582031 586.6875 C 1035.132812 583.238281 1034.804688 580.289062 1033.882812 576.933594 C 1031.230469 573.425781 1028.140625 571.714844 1024.175781 569.878906 C 1018.144531 567.503906 1011.90625 565.675781 1005.675781 563.90625 C 993.59375 560.457031 983.160156 556.355469 973.8125 547.632812 C 969.347656 543.007812 966.914062 537.394531 965.253906 531.226562 C 964.035156 522.625 964.136719 513.175781 967.347656 505.050781 L 967.964844 503.378906 C 970.769531 496.871094 976.425781 491.3125 981.863281 486.882812 C 999.03125 474.863281 1023.964844 476.605469 1042.585938 484.238281 M 983.359375 488.128906 C 977.855469 491.984375 973.371094 495.855469 970.398438 501.949219 C 967.082031 510.148438 965.667969 518.640625 966.546875 527.460938 C 968.046875 534.886719 970.878906 541.625 975.863281 547.382812 C 985.816406 556.96875 999.875 560.347656 1012.726562 564.109375 C 1028.976562 568.882812 1028.976562 568.882812 1035.035156 575.234375 C 1036.4375 578.464844 1036.636719 580.988281 1036.480469 584.488281 C 1036.113281 587.210938 1035.527344 589.339844 1034.148438 591.714844 C 1031.871094 594.402344 1028.996094 595.78125 1025.777344 597.09375 C 1018.972656 599.492188 1012.460938 598.679688 1005.519531 597.417969 C 996.542969 595.683594 988.867188 592.71875 981.449219 587.375 C 979.984375 586.316406 979.984375 586.316406 977.753906 585.089844 C 975.761719 585.246094 974.726562 585.800781 972.949219 586.6875 L 971.800781 588.640625 C 970.550781 590.691406 970.550781 590.691406 968.148438 592.292969 C 967.328125 593.613281 966.527344 594.949219 965.746094 596.292969 L 963.945312 598.34375 L 962.546875 600.296875 C 962.546875 601.890625 962.546875 601.890625 963.347656 603.496094 C 965.796875 605.902344 968.582031 607.875 971.351562 609.898438 L 972.9375 611.0625 C 982.65625 617.625 995.492188 620.917969 1006.980469 622.390625 L 1008.96875 622.707031 L 1009.769531 623.507812 C 1011.652344 623.566406 1013.539062 623.574219 1015.421875 623.558594 L 1018.554688 623.535156 L 1020.976562 623.507812 L 1020.976562 622.707031 L 1023.292969 622.292969 C 1034.28125 620.234375 1043.160156 617.132812 1052.191406 610.289062 C 1056.875 606.148438 1059.597656 600.441406 1061.796875 594.691406 C 1062.378906 591.785156 1062.644531 588.851562 1062.597656 585.886719 L 1064.199219 585.886719 L 1064.199219 577.085938 L 1062.597656 577.085938 L 1062.589844 575.671875 C 1062.296875 569.460938 1060.285156 564.710938 1056.996094 559.476562 C 1051.640625 552.21875 1045.4375 548.191406 1037.285156 544.617188 C 1031.996094 542.5 1026.570312 540.863281 1021.125 539.199219 C 1001.515625 533.207031 1001.515625 533.207031 996.964844 529.058594 C 995.058594 526.527344 993.824219 524.109375 992.960938 521.054688 C 992.679688 518.167969 993.289062 515.828125 994.375 513.125 C 995.621094 510.632812 997.039062 508.988281 999.164062 507.199219 C 1004.832031 504.257812 1010.699219 503.886719 1016.972656 503.449219 L 1016.972656 505.046875 L 1019.175781 504.847656 C 1028.320312 504.921875 1037.09375 510.527344 1044.988281 514.652344 C 1052.144531 505.707031 1052.144531 505.707031 1058.59375 496.246094 C 1049.40625 488.988281 1038.914062 483.613281 1027.339844 481.363281 C 1022.863281 480.902344 1018.417969 480.890625 1013.921875 480.886719 L 1011.195312 480.855469 C 1001.035156 480.839844 992.089844 482.710938 983.359375 488.128906 "/><path style=" stroke:none;fill-rule:nonzero;fill:#fd2536;fill-opacity:1;" d="M 950.539062 185.691406 L 1065 185.691406 L 1065 306.550781 L 949.738281 306.550781 L 949.738281 279.339844 L 951.339844 278.539062 L 951.339844 304.152344 L 1061.796875 304.152344 C 1061.820312 283.847656 1061.820312 283.847656 1061.835938 263.542969 C 1061.839844 255.269531 1061.847656 246.992188 1061.855469 238.714844 C 1061.863281 232.691406 1061.871094 226.664062 1061.875 220.636719 C 1061.875 217.445312 1061.875 214.253906 1061.882812 211.0625 C 1061.886719 208.058594 1061.890625 205.058594 1061.886719 202.054688 C 1061.886719 200.949219 1061.890625 199.847656 1061.890625 198.742188 C 1061.894531 197.238281 1061.894531 195.734375 1061.894531 194.230469 L 1061.894531 191.679688 C 1061.929688 189.691406 1061.929688 189.691406 1060.996094 188.09375 C 1046.734375 187.472656 1032.464844 187.179688 1018.191406 187.214844 L 1012.414062 187.21875 C 1007.429688 187.222656 1002.441406 187.230469 997.457031 187.238281 C 992.335938 187.246094 987.21875 187.25 982.097656 187.253906 C 972.113281 187.261719 962.125 187.277344 952.140625 187.292969 L 949.738281 192.097656 L 948.136719 190.496094 Z M 950.539062 185.691406 "/><path style=" stroke:none;fill-rule:nonzero;fill:#1ccedc;fill-opacity:1;" d="M 1028.179688 480.238281 L 1027.378906 481.835938 C 1026.695312 481.828125 1026.007812 481.820312 1025.300781 481.8125 C 1022.722656 481.785156 1020.140625 481.765625 1017.558594 481.75 C 1016.449219 481.742188 1015.339844 481.730469 1014.230469 481.71875 C 1003.84375 481.589844 995.105469 482.660156 985.757812 487.441406 C 980.246094 490.882812 975.308594 494.441406 972.089844 500.175781 C 968.34375 507.835938 966.851562 516.183594 967.070312 524.671875 C 967.410156 528.128906 968.160156 531.5 969.320312 534.777344 C 970.476562 538.054688 972.007812 541.144531 973.917969 544.050781 C 979.320312 550.890625 987.109375 554.6875 995.011719 557.941406 C 1000.484375 560.003906 1006.164062 561.425781 1011.804688 562.941406 C 1019.386719 565.007812 1026.886719 567.078125 1032.980469 572.28125 C 1034.660156 574.128906 1035.878906 575.671875 1036.984375 577.882812 C 1037.421875 582.132812 1037.5 586.238281 1035.734375 590.191406 C 1034.1875 592.816406 1032.445312 594.632812 1029.878906 596.269531 C 1024.691406 598.789062 1019.503906 599.726562 1013.773438 599.496094 C 1002.042969 598.054688 991.207031 595.308594 981.589844 588.175781 C 980.125 587.09375 980.125 587.09375 977.753906 585.886719 C 975.105469 585.980469 975.105469 585.980469 972.949219 586.6875 L 972.703125 588.140625 C 972.152344 589.890625 972.152344 589.890625 971 591.289062 L 969.75 592.292969 L 968.148438 592.292969 L 968 593.59375 C 967.066406 596.320312 965.320312 598.25 963.347656 600.296875 C 962.042969 601.398438 960.714844 602.476562 959.34375 603.496094 C 959.492188 602.203125 959.492188 602.203125 960.144531 600.296875 C 961.4375 598.613281 962.789062 596.980469 964.195312 595.394531 C 964.996094 594.472656 965.792969 593.550781 966.589844 592.625 L 967.792969 591.238281 C 970.402344 588.195312 972.871094 585.035156 975.351562 581.886719 C 978.351562 582.976562 980.8125 584.359375 983.457031 586.140625 C 992.964844 592.269531 1002.578125 595.609375 1013.886719 596.234375 C 1019.5625 596.4375 1024.230469 595.910156 1029.28125 593.292969 C 1031.71875 591.203125 1033.164062 589.585938 1034.582031 586.6875 C 1035.132812 583.238281 1034.804688 580.289062 1033.882812 576.933594 C 1031.230469 573.425781 1028.140625 571.714844 1024.175781 569.878906 C 1018.144531 567.503906 1011.90625 565.675781 1005.675781 563.90625 C 993.59375 560.457031 983.160156 556.355469 973.8125 547.632812 C 969.347656 543.007812 966.914062 537.394531 965.253906 531.226562 C 964.035156 522.625 964.136719 513.175781 967.347656 505.050781 L 967.964844 503.378906 C 970.769531 496.871094 976.425781 491.3125 981.863281 486.882812 C 995.226562 477.527344 1012.710938 476.957031 1028.179688 480.238281 "/><path style=" stroke:none;fill-rule:nonzero;fill:#70e1ec;fill-opacity:1;" d="M 943.335938 482.636719 L 943.335938 624.308594 L 912.917969 624.308594 L 912.917969 535.464844 L 914.519531 535.464844 L 915.320312 533.863281 C 915.957031 536.105469 916.214844 538.074219 916.191406 540.40625 L 916.179688 542.40625 L 916.152344 544.578125 L 916.132812 546.882812 C 916.109375 549.394531 916.082031 551.910156 916.050781 554.421875 L 916 559.660156 C 915.964844 563.324219 915.925781 566.984375 915.882812 570.644531 C 915.832031 575.335938 915.785156 580.03125 915.742188 584.722656 C 915.707031 588.332031 915.667969 591.9375 915.628906 595.542969 C 915.609375 597.273438 915.59375 599.003906 915.578125 600.734375 C 915.554688 603.152344 915.527344 605.570312 915.496094 607.988281 L 915.480469 610.164062 L 915.453125 612.160156 L 915.433594 613.890625 C 915.320312 615.503906 915.320312 615.503906 914.863281 617.160156 L 914.519531 618.703125 L 915.320312 621.105469 C 923.210938 625.050781 932.917969 622.421875 941.734375 622.707031 L 940.933594 485.839844 L 912.917969 485.039062 L 912.917969 487.441406 L 910.519531 488.242188 C 912.019531 484.339844 912.019531 484.339844 912.917969 483.4375 C 915.101562 483.308594 917.265625 483.230469 919.449219 483.183594 L 921.429688 483.136719 C 923.53125 483.082031 925.628906 483.035156 927.726562 482.988281 L 931.976562 482.882812 C 941.945312 482.636719 941.945312 482.636719 943.335938 482.636719 "/><path style=" stroke:none;fill-rule:nonzero;fill:#17cddb;fill-opacity:1;" d="M 720.019531 527.460938 C 722.445312 527.945312 724.089844 528.714844 726.121094 530.113281 C 732.398438 534.160156 739.570312 536.136719 746.683594 538.214844 C 759.363281 542.03125 771.945312 545.886719 781.300781 555.824219 C 785.183594 560.597656 788.121094 566.089844 789.378906 572.144531 C 790.886719 581.660156 790.609375 590.59375 787.152344 599.695312 C 784.132812 606.296875 779.988281 611.328125 774.246094 615.753906 C 766.980469 620.75 758.363281 624.152344 749.554688 624.980469 C 732.964844 625.894531 717.535156 623.925781 702.496094 616.527344 C 695.707031 612.996094 689.847656 608.398438 684 603.496094 C 685.460938 600.355469 687.347656 598.105469 689.601562 595.492188 C 689.601562 597.894531 689.601562 597.894531 689.402344 600.144531 C 689.433594 602.769531 689.433594 602.769531 690.90625 605.050781 C 694.996094 610.328125 702.21875 613.796875 708.339844 616.351562 C 723.214844 621.730469 737.425781 624.132812 753.21875 621.652344 C 761.246094 620.09375 767.863281 617.167969 774.449219 612.300781 L 775.796875 610.929688 L 776.847656 609.898438 L 778.449219 609.898438 L 779.101562 608.523438 C 780.089844 606.621094 781.226562 604.890625 782.402344 603.097656 C 785.960938 597.125 787.296875 591.269531 787.535156 584.339844 C 787.613281 577.367188 786.886719 570.792969 783.765625 564.476562 C 781.074219 559.816406 778.175781 555.289062 773.648438 552.273438 L 773.648438 550.671875 L 771.746094 550.121094 C 769.351562 549.253906 767.289062 548.292969 765.042969 547.121094 C 761.6875 545.402344 758.402344 544.199219 754.773438 543.207031 C 753.40625 542.824219 752.046875 542.398438 750.703125 541.9375 C 748.5625 541.242188 746.402344 540.617188 744.226562 540.054688 C 727.792969 535.734375 727.792969 535.734375 721.621094 530.660156 C 720.578125 528.890625 720.578125 528.890625 720.019531 527.460938 "/><path style=" stroke:none;fill-rule:nonzero;fill:#017288;fill-opacity:1;" d="M 479.09375 359.378906 L 480.695312 359.378906 L 480.695312 624.308594 L 478.292969 623.507812 Z M 479.09375 359.378906 "/><path style=" stroke:none;fill-rule:nonzero;fill:#027287;fill-opacity:1;" d="M 864.09375 188.894531 L 865.695312 188.894531 C 866.894531 230.214844 866.441406 271.542969 866.195312 312.875 C 866.140625 322.859375 866.085938 332.839844 866.035156 342.824219 C 865.925781 363.28125 865.816406 383.742188 865.695312 404.199219 L 864.09375 404.199219 Z M 864.09375 188.894531 "/><path style=" stroke:none;fill-rule:nonzero;fill:#278698;fill-opacity:1;" d="M 486.296875 353.773438 C 487.691406 354.273438 487.691406 354.273438 489.5 355.375 C 491.15625 357.578125 491.15625 357.578125 492.800781 360.179688 C 494.917969 363.566406 494.917969 363.566406 497.503906 366.582031 C 499.140625 368.628906 500.335938 370.648438 501.503906 372.984375 L 503.105469 374.585938 C 503.660156 375.558594 504.195312 376.542969 504.707031 377.535156 C 507.414062 382.476562 510.585938 387.085938 513.734375 391.746094 C 516.335938 395.613281 518.921875 399.488281 521.511719 403.367188 C 522.441406 404.765625 523.375 406.160156 524.308594 407.554688 C 527.527344 412.367188 530.6875 417.21875 533.785156 422.109375 C 535.996094 425.578125 538.285156 428.996094 540.578125 432.414062 L 542.058594 434.632812 C 544.171875 437.796875 546.292969 440.960938 548.410156 444.125 C 552.476562 450.199219 556.492188 456.304688 560.488281 462.429688 L 561.984375 464.722656 C 565.339844 469.871094 568.652344 475.046875 571.941406 480.238281 L 569.539062 481.035156 C 552.742188 455.988281 552.742188 455.988281 545.878906 445.121094 C 538.835938 433.980469 531.40625 423.097656 524.007812 412.191406 C 515.757812 400.019531 515.757812 400.019531 511.882812 393.84375 C 509.609375 390.304688 507.261719 386.8125 504.917969 383.320312 L 503.433594 381.109375 C 501.386719 378.054688 499.339844 375.007812 497.285156 371.957031 C 495.773438 369.710938 494.265625 367.460938 492.761719 365.210938 L 491.351562 363.128906 L 490.046875 361.175781 L 488.902344 359.476562 C 487.8125 357.632812 487.042969 355.777344 486.296875 353.773438 "/><path style=" stroke:none;fill-rule:nonzero;fill:#0dd3e0;fill-opacity:1;" d="M 1028.179688 480.238281 C 1039.703125 482.132812 1049.335938 487.230469 1058.71875 494.035156 L 1060.195312 495.445312 L 1060.195312 497.84375 C 1059.054688 499.492188 1057.855469 501.089844 1056.59375 502.648438 C 1055.863281 503.574219 1055.128906 504.503906 1054.398438 505.433594 L 1053.28125 506.851562 C 1050.691406 510.183594 1048.25 513.625 1045.789062 517.054688 C 1042.828125 515.945312 1040.054688 514.601562 1037.25 513.15625 C 1028.261719 508.539062 1020.878906 505.847656 1010.570312 505.847656 C 1006.5625 506.195312 1003.402344 507.023438 999.816406 508.851562 C 997.703125 510.566406 997.703125 510.566406 996.261719 512.753906 C 995.042969 516.417969 994.828125 519.632812 995.363281 523.457031 C 996.378906 526.214844 996.378906 526.214844 998.5625 528.261719 C 1000.398438 529.378906 1002.285156 530.402344 1004.226562 531.320312 L 1005.769531 532.261719 L 1006.570312 534.664062 C 1002.773438 533.714844 999.875 532.125 996.835938 529.726562 C 994.765625 527.667969 993.632812 525.613281 992.609375 522.894531 C 992.023438 520.496094 991.992188 518.59375 992.480469 516.183594 C 993.519531 512.882812 994.882812 510.28125 997.394531 507.867188 C 1000.152344 505.714844 1002.894531 504.394531 1006.355469 503.664062 C 1009.886719 503.242188 1013.425781 503.332031 1016.972656 503.449219 L 1016.972656 505.046875 L 1019.175781 504.449219 C 1022.898438 503.949219 1025.902344 505.03125 1029.390625 506.285156 C 1034.730469 508.515625 1039.859375 511.171875 1044.988281 513.851562 C 1049.472656 508.117188 1053.882812 502.394531 1057.796875 496.246094 C 1048.53125 489.175781 1038.386719 485.277344 1027.378906 481.835938 Z M 1028.179688 480.238281 "/><path style=" stroke:none;fill-rule:nonzero;fill:#fe2e3e;fill-opacity:1;" d="M 950.539062 185.691406 L 1065 185.691406 L 1065 240.121094 L 1062.597656 240.121094 L 1062.574219 238.214844 C 1062.496094 232.304688 1062.414062 226.390625 1062.328125 220.480469 C 1062.28125 217.4375 1062.238281 214.398438 1062.199219 211.359375 C 1062.160156 208.425781 1062.121094 205.496094 1062.074219 202.5625 C 1062.058594 201.441406 1062.042969 200.324219 1062.03125 199.203125 C 1062.011719 197.636719 1061.988281 196.070312 1061.960938 194.503906 C 1061.949219 193.613281 1061.9375 192.71875 1061.921875 191.800781 C 1061.9375 189.710938 1061.9375 189.710938 1060.996094 188.09375 C 1046.734375 187.472656 1032.464844 187.179688 1018.191406 187.214844 L 1012.414062 187.21875 C 1007.429688 187.222656 1002.441406 187.230469 997.457031 187.238281 C 992.335938 187.246094 987.21875 187.25 982.097656 187.253906 C 972.113281 187.261719 962.125 187.277344 952.140625 187.292969 L 949.738281 192.097656 L 948.136719 190.496094 Z M 950.539062 185.691406 "/><path style=" stroke:none;fill-rule:nonzero;fill:#17cddb;fill-opacity:1;" d="M 692.003906 537.863281 C 694.15625 538.265625 694.15625 538.265625 696.808594 539.464844 C 698.375 541.460938 699.550781 543.667969 700.808594 545.867188 C 704.792969 551.609375 710.617188 554.914062 716.859375 557.863281 C 721.480469 559.875 726.300781 561.078125 731.175781 562.328125 C 751.851562 567.714844 751.851562 567.714844 758.4375 573.082031 C 760.085938 575.097656 761.328125 577.136719 762.441406 579.484375 L 763.242188 581.085938 C 763.542969 583.136719 763.542969 583.136719 763.242188 585.886719 C 761.714844 589.625 759.753906 592.886719 756.738281 595.59375 L 754.4375 597.09375 L 752.035156 596.292969 L 753.835938 594.992188 C 756.289062 592.875 757.722656 591.15625 759.238281 588.289062 C 759.878906 585.859375 760.175781 583.597656 760.039062 581.085938 C 758.992188 578.390625 758.992188 578.390625 757.640625 576.285156 L 757.640625 574.683594 C 756.574219 574.144531 755.507812 573.613281 754.4375 573.082031 L 752.460938 572.101562 C 745.859375 569.054688 739.136719 567.050781 732.125 565.128906 C 719.660156 561.675781 708.410156 558.21875 699.039062 548.914062 C 695.785156 545.449219 693.539062 542.371094 692.003906 537.863281 "/><path style=" stroke:none;fill-rule:nonzero;fill:#12d6e4;fill-opacity:1;" d="M 910.519531 533.0625 L 913.71875 533.0625 C 912.855469 534.792969 911.828125 536.238281 910.703125 537.816406 C 906.058594 544.414062 901.628906 551.15625 897.160156 557.875 L 894.472656 561.910156 C 892.703125 564.570312 890.929688 567.234375 889.160156 569.898438 C 885.078125 576.03125 880.988281 582.160156 876.902344 588.289062 C 873.125 584.859375 870.507812 580.933594 867.738281 576.671875 L 866.257812 574.417969 C 864.699219 572.039062 863.144531 569.660156 861.59375 567.277344 L 858.515625 562.589844 C 852.605469 553.570312 846.726562 544.527344 840.882812 535.464844 L 842.484375 533.863281 L 843.503906 535.429688 C 851.914062 548.335938 860.402344 561.195312 868.96875 574 C 871.082031 577.160156 873.191406 580.324219 875.300781 583.488281 L 877.703125 582.6875 C 879.101562 580.796875 880.4375 578.863281 881.703125 576.882812 L 882.765625 575.261719 C 884.261719 572.96875 885.707031 570.675781 887.054688 568.292969 L 888.105469 566.679688 L 889.707031 566.679688 L 890.402344 565.253906 C 891.792969 562.527344 893.433594 559.96875 895.0625 557.375 L 896.144531 555.636719 C 898.507812 551.890625 900.988281 548.222656 903.589844 544.636719 C 905.6875 541.519531 907.425781 538.203125 909.175781 534.882812 Z M 910.519531 533.0625 "/><path style=" stroke:none;fill-rule:nonzero;fill:#33d3df;fill-opacity:1;" d="M 1035.382812 579.484375 L 1036.183594 579.484375 C 1036.835938 582.539062 1037.324219 585.390625 1036.523438 588.453125 C 1035.253906 591.265625 1033.738281 593.402344 1031.332031 595.34375 C 1026.953125 598.128906 1021.84375 599.386719 1016.703125 599.613281 C 1007.035156 599.222656 995.808594 597.214844 987.464844 592.191406 C 985.472656 590.898438 983.5 589.59375 981.589844 588.175781 C 980.125 587.09375 980.125 587.09375 977.753906 585.886719 C 975.105469 585.980469 975.105469 585.980469 972.949219 586.6875 L 972.699219 588.140625 C 972.152344 589.890625 972.152344 589.890625 971 591.289062 L 969.75 592.292969 L 968.148438 592.292969 L 968 593.59375 C 967.066406 596.320312 965.320312 598.25 963.347656 600.296875 C 962.042969 601.398438 960.714844 602.476562 959.34375 603.496094 C 959.492188 602.203125 959.492188 602.203125 960.144531 600.296875 C 961.4375 598.613281 962.789062 596.980469 964.195312 595.394531 C 964.996094 594.472656 965.792969 593.550781 966.589844 592.625 L 967.792969 591.238281 C 970.402344 588.195312 972.871094 585.035156 975.351562 581.886719 C 978.351562 582.976562 980.8125 584.359375 983.457031 586.140625 C 992.964844 592.269531 1002.578125 595.609375 1013.886719 596.234375 C 1019.5625 596.4375 1024.230469 595.910156 1029.28125 593.292969 C 1031.707031 591.214844 1033.128906 589.542969 1034.582031 586.6875 C 1035.050781 584.289062 1035.273438 581.925781 1035.382812 579.484375 "/><path style=" stroke:none;fill-rule:nonzero;fill:#49d8e6;fill-opacity:1;" d="M 943.335938 482.636719 L 943.335938 560.277344 L 941.734375 560.277344 L 940.933594 485.839844 L 912.917969 485.039062 L 912.917969 487.441406 L 910.519531 488.242188 C 912.019531 484.339844 912.019531 484.339844 912.917969 483.4375 C 915.101562 483.308594 917.265625 483.230469 919.449219 483.183594 L 921.429688 483.136719 C 923.53125 483.082031 925.628906 483.035156 927.726562 482.988281 L 931.976562 482.882812 C 941.945312 482.636719 941.945312 482.636719 943.335938 482.636719 "/><path style=" stroke:none;fill-rule:nonzero;fill:#59dbe5;fill-opacity:1;" d="M 1028.179688 480.238281 L 1027.378906 481.835938 C 1026.695312 481.828125 1026.007812 481.820312 1025.300781 481.8125 C 1022.722656 481.785156 1020.140625 481.765625 1017.558594 481.75 C 1016.449219 481.742188 1015.339844 481.730469 1014.230469 481.71875 C 1003.84375 481.589844 995.105469 482.660156 985.757812 487.441406 C 980.257812 490.878906 975.429688 494.417969 972.117188 500.066406 C 969.757812 504.765625 968.722656 509.796875 967.664062 514.914062 C 967.339844 516.4375 966.949219 517.949219 966.546875 519.457031 L 964.945312 520.257812 C 964.578125 513.726562 966.011719 507.78125 968.648438 501.796875 C 971.949219 495.640625 977.640625 489.84375 983.355469 485.839844 C 996.863281 477.703125 1013.0625 477.03125 1028.179688 480.238281 "/><path style=" stroke:none;fill-rule:nonzero;fill:#54dae4;fill-opacity:1;" d="M 700.808594 581.886719 L 702.101562 582.769531 C 703.375 583.625 704.652344 584.476562 705.933594 585.320312 C 707.222656 586.167969 708.5 587.027344 709.765625 587.90625 C 717.089844 592.722656 726.503906 596.054688 735.226562 597.09375 C 740.886719 597.332031 746.4375 597.171875 752.035156 596.292969 C 750.433594 598.695312 750.433594 598.695312 748.660156 599.628906 C 742.847656 601.367188 736.261719 600.722656 730.425781 599.34375 C 728.816406 598.882812 727.214844 598.398438 725.621094 597.894531 L 722.925781 597.097656 C 716.996094 595.1875 712.046875 592.675781 706.976562 589.117188 C 704.398438 587.328125 702.347656 586.238281 699.207031 585.886719 L 699.058594 587.238281 C 698.128906 589.882812 696.484375 591.265625 694.40625 593.09375 L 692.804688 593.09375 L 692.003906 595.492188 L 690.402344 594.691406 L 692.273438 592.5 L 694.707031 589.640625 L 695.9375 588.199219 L 697.125 586.796875 L 698.21875 585.515625 C 699.152344 584.359375 699.984375 583.125 700.808594 581.886719 "/><path style=" stroke:none;fill-rule:nonzero;fill:#2ddae9;fill-opacity:1;" d="M 914.519531 533.863281 C 915.453125 535.503906 916.089844 536.796875 916.304688 538.683594 L 916.285156 540.425781 L 916.269531 542.441406 L 916.230469 544.628906 L 916.207031 546.949219 C 916.179688 549.476562 916.140625 552.007812 916.101562 554.535156 C 916.082031 556.289062 916.0625 558.042969 916.042969 559.796875 C 915.988281 564.414062 915.925781 569.03125 915.859375 573.644531 C 915.796875 578.355469 915.742188 583.066406 915.683594 587.777344 C 915.570312 597.019531 915.449219 606.261719 915.320312 615.503906 L 913.71875 614.703125 C 913.703125 604.398438 913.6875 594.09375 913.679688 583.792969 C 913.675781 579.007812 913.667969 574.222656 913.660156 569.4375 C 913.652344 564.824219 913.644531 560.210938 913.644531 555.597656 C 913.640625 553.835938 913.640625 552.070312 913.636719 550.308594 C 913.628906 547.84375 913.628906 545.382812 913.628906 542.917969 L 913.621094 540.691406 L 913.625 538.664062 L 913.621094 536.898438 C 913.71875 535.464844 913.71875 535.464844 914.519531 533.863281 "/><path style=" stroke:none;fill-rule:nonzero;fill:#18cddb;fill-opacity:1;" d="M 852.089844 504.25 L 854.488281 504.25 C 855.636719 505.695312 855.636719 505.695312 856.835938 507.742188 C 857.285156 508.496094 857.734375 509.246094 858.199219 510.023438 L 859.640625 512.503906 C 860.644531 514.1875 861.648438 515.875 862.65625 517.558594 L 864.1875 520.140625 C 866.425781 523.878906 868.726562 527.574219 871.046875 531.261719 L 872.242188 533.179688 L 873.359375 534.949219 L 874.324219 536.488281 C 875.332031 537.910156 876.4375 539.070312 877.703125 540.265625 L 878.300781 538.566406 C 879.429688 535.96875 880.886719 533.78125 882.503906 531.460938 C 883.054688 532.8125 883.054688 532.8125 883.304688 534.664062 C 882.253906 536.816406 882.253906 536.816406 880.902344 538.664062 L 879.300781 539.464844 C 878.722656 540.78125 878.1875 542.113281 877.703125 543.46875 L 876.101562 543.46875 C 874.886719 541.859375 873.738281 540.210938 872.648438 538.515625 L 871.601562 536.921875 C 868.121094 531.585938 864.785156 526.164062 861.476562 520.726562 C 858.878906 516.476562 856.097656 512.351562 853.136719 508.347656 L 852.089844 506.648438 Z M 852.089844 504.25 "/><path style=" stroke:none;fill-rule:nonzero;fill:#02bdcc;fill-opacity:1;" d="M 754.4375 507.449219 C 759.679688 509.316406 764.296875 511.46875 768.84375 514.652344 C 770.625 515.269531 770.625 515.269531 772.046875 515.453125 L 770.445312 518.65625 C 769.730469 518.230469 769.011719 517.804688 768.277344 517.367188 C 758.480469 511.617188 748.742188 507.007812 737.132812 506.53125 C 732.53125 506.734375 728.402344 507.792969 724.488281 510.28125 C 722.957031 511.417969 721.46875 512.609375 720.019531 513.851562 C 720.167969 512.050781 720.167969 512.050781 720.820312 509.851562 C 722.945312 507.589844 725.21875 506.359375 728.074219 505.25 C 736.988281 502.59375 745.8125 504.699219 754.4375 507.449219 "/><path style=" stroke:none;fill-rule:nonzero;fill:#4e9cab;fill-opacity:1;" d="M 719.21875 231.316406 C 720.089844 232.765625 720.089844 232.765625 720.820312 234.515625 C 719.871094 236.585938 718.882812 238.242188 717.617188 240.121094 L 716.140625 242.363281 C 714.507812 244.824219 712.867188 247.277344 711.214844 249.722656 C 709.9375 251.660156 708.664062 253.597656 707.394531 255.535156 C 706.414062 256.929688 706.414062 256.929688 704.8125 258.527344 L 704.011719 260.128906 C 702.59375 262.964844 700.074219 264.621094 697.609375 266.53125 L 696.007812 267.332031 C 697.011719 264.628906 698.152344 262.320312 699.773438 259.9375 L 701.082031 257.996094 L 702.492188 255.9375 L 703.9375 253.800781 C 705.457031 251.554688 706.984375 249.316406 708.511719 247.074219 L 711.613281 242.5 C 714.144531 238.769531 716.679688 235.039062 719.21875 231.316406 "/><path style=" stroke:none;fill-rule:nonzero;fill:#09cad9;fill-opacity:1;" d="M 961.746094 600.296875 L 963.394531 601.996094 C 972.851562 611.398438 983.226562 615.777344 995.925781 619.632812 C 999.578125 620.5625 1003.242188 621.074219 1006.980469 621.511719 L 1008.96875 621.90625 L 1009.769531 623.507812 C 1000.414062 624.453125 990.835938 621.785156 982.296875 618.066406 C 974.546875 614.441406 965.992188 609.824219 960.144531 603.496094 Z M 961.746094 600.296875 "/><path style=" stroke:none;fill-rule:nonzero;fill:#21d8e4;fill-opacity:1;" d="M 1005.769531 533.0625 L 1012.03125 534.769531 C 1013.648438 535.210938 1015.269531 535.648438 1016.894531 536.085938 C 1043.375 543.191406 1043.375 543.191406 1052.992188 552.273438 C 1055.210938 554.609375 1057.332031 557.003906 1059.394531 559.476562 L 1056.996094 560.277344 L 1055.699219 558.695312 C 1049.058594 550.902344 1041.714844 546.957031 1032.183594 543.46875 C 1026.738281 541.660156 1021.246094 540.007812 1015.738281 538.410156 L 1013.953125 537.878906 C 1012.820312 537.542969 1011.679688 537.214844 1010.542969 536.894531 C 1008.996094 536.433594 1008.996094 536.433594 1006.570312 535.464844 Z M 1005.769531 533.0625 "/><path style=" stroke:none;fill-rule:nonzero;fill:#37ecf2;fill-opacity:1;" d="M 838.480469 581.085938 L 839.28125 581.085938 L 839.28125 624.308594 L 809.664062 624.308594 L 810.464844 621.90625 L 836.878906 622.707031 C 837.109375 614.101562 837.109375 614.101562 837.335938 605.492188 C 837.554688 597.34375 837.953125 589.21875 838.480469 581.085938 "/><path style=" stroke:none;fill-rule:nonzero;fill:#22cfdd;fill-opacity:1;" d="M 720.019531 527.460938 C 722.445312 527.945312 724.089844 528.714844 726.121094 530.113281 C 732.398438 534.160156 739.570312 536.136719 746.683594 538.214844 C 757.027344 541.320312 766.289062 544.441406 775.246094 550.671875 L 773.648438 551.472656 C 771.617188 550.527344 769.617188 549.527344 767.644531 548.46875 C 763.375 546.257812 759.289062 544.324219 754.605469 543.125 C 752.835938 542.667969 752.835938 542.667969 750.722656 541.945312 C 748.578125 541.25 746.410156 540.621094 744.226562 540.054688 C 727.792969 535.734375 727.792969 535.734375 721.621094 530.660156 C 720.578125 528.890625 720.578125 528.890625 720.019531 527.460938 "/><path style=" stroke:none;fill-rule:nonzero;fill:#fdf8f8;fill-opacity:1;" d="M 950.539062 185.691406 L 1065 185.691406 L 1065 186.492188 L 952.140625 187.292969 L 949.738281 192.097656 L 948.136719 190.496094 Z M 950.539062 185.691406 "/><path style=" stroke:none;fill-rule:nonzero;fill:#15d4e1;fill-opacity:1;" d="M 1016.972656 503.449219 L 1017.773438 505.847656 L 1014.671875 505.75 C 1009.371094 505.765625 1004.566406 506.429688 999.816406 508.851562 C 997.703125 510.566406 997.703125 510.566406 996.261719 512.753906 C 995.042969 516.417969 994.828125 519.632812 995.363281 523.457031 C 996.378906 526.214844 996.378906 526.214844 998.5625 528.261719 C 1000.398438 529.378906 1002.285156 530.402344 1004.226562 531.320312 L 1005.769531 532.261719 L 1006.570312 534.664062 C 1002.773438 533.714844 999.875 532.125 996.835938 529.726562 C 994.765625 527.667969 993.632812 525.613281 992.609375 522.894531 C 992.023438 520.496094 991.992188 518.59375 992.480469 516.183594 C 993.519531 512.882812 994.882812 510.28125 997.394531 507.867188 C 1000.152344 505.714844 1002.894531 504.394531 1006.355469 503.664062 C 1009.886719 503.242188 1013.425781 503.332031 1016.972656 503.449219 "/><path style=" stroke:none;fill-rule:nonzero;fill:#43d7e3;fill-opacity:1;" d="M 841.683594 533.863281 C 844.476562 536.40625 846.359375 539.253906 848.285156 542.46875 C 852.839844 549.910156 857.691406 557.144531 862.550781 564.390625 L 864.09375 566.699219 C 865.230469 568.386719 866.367188 570.070312 867.511719 571.75 L 869.289062 574.371094 L 870.917969 576.757812 L 872.097656 578.683594 L 872.097656 580.285156 L 869.695312 579.484375 C 868.707031 578.328125 868.707031 578.328125 867.726562 576.816406 L 866.597656 575.105469 L 865.394531 573.234375 L 864.121094 571.289062 C 862.773438 569.222656 861.433594 567.148438 860.09375 565.078125 L 857.457031 561.039062 C 855.714844 558.371094 853.980469 555.699219 852.253906 553.023438 C 850.535156 550.367188 848.796875 547.722656 847.042969 545.089844 L 845.789062 543.1875 C 845 542 844.210938 540.8125 843.414062 539.628906 C 842.519531 538.269531 841.695312 536.871094 840.882812 535.464844 Z M 841.683594 533.863281 "/><path style=" stroke:none;fill-rule:nonzero;fill:#14c2d0;fill-opacity:1;" d="M 692.003906 537.863281 C 694.15625 538.265625 694.15625 538.265625 696.808594 539.464844 C 698.375 541.460938 699.550781 543.667969 700.808594 545.867188 C 704.578125 551.300781 709.902344 554.453125 715.789062 557.339844 C 717.453125 558.085938 719.125 558.800781 720.820312 559.476562 L 720.820312 561.078125 C 713.417969 559.355469 707.042969 556.195312 701.140625 551.386719 C 696.890625 547.398438 694.234375 543.234375 692.003906 537.863281 "/><path style=" stroke:none;fill-rule:nonzero;fill:#62a7b4;fill-opacity:1;" d="M 657.585938 324.160156 L 660.789062 324.960938 C 659.867188 326.9375 659.148438 328.199219 657.585938 329.761719 L 656.785156 331.363281 C 655.984375 332.964844 655.984375 332.964844 654.386719 334.566406 L 653.585938 336.167969 C 652.785156 337.765625 652.785156 337.765625 651.183594 339.367188 C 649.550781 341.765625 647.96875 344.191406 646.382812 346.621094 C 643.785156 350.4375 641.710938 353.191406 637.578125 355.375 C 638.882812 351.492188 641.0625 348.378906 643.359375 345.03125 L 644.59375 343.21875 C 645.886719 341.316406 647.183594 339.414062 648.480469 337.515625 C 649.363281 336.222656 650.242188 334.933594 651.121094 333.640625 C 653.273438 330.476562 655.429688 327.316406 657.585938 324.160156 "/><path style=" stroke:none;fill-rule:nonzero;fill:#64a8b5;fill-opacity:1;" d="M 671.996094 302.550781 L 675.195312 303.351562 C 674.273438 305.324219 673.558594 306.589844 671.996094 308.152344 L 671.195312 309.753906 C 670.394531 311.355469 670.394531 311.355469 668.792969 312.957031 L 667.292969 315.207031 C 664.683594 319.117188 662.597656 321.9375 658.386719 324.160156 C 659.496094 321.09375 660.917969 318.597656 662.769531 315.917969 L 664.394531 313.546875 C 665.234375 312.339844 665.234375 312.339844 666.089844 311.105469 L 667.804688 308.613281 C 669.199219 306.589844 670.59375 304.570312 671.996094 302.550781 "/><path style=" stroke:none;fill-rule:nonzero;fill:#53dae4;fill-opacity:1;" d="M 1005.769531 478.636719 C 1007.746094 478.414062 1009.730469 478.332031 1011.722656 478.386719 L 1013.4375 478.40625 C 1018.4375 478.519531 1023.285156 479.199219 1028.179688 480.238281 L 1027.378906 481.835938 L 1003.367188 481.039062 Z M 1005.769531 478.636719 "/><path style=" stroke:none;fill-rule:nonzero;fill:#07cad9;fill-opacity:1;" d="M 910.519531 533.0625 L 913.71875 533.0625 C 912.792969 534.914062 911.664062 536.492188 910.464844 538.183594 C 907.25 542.75 904.101562 547.355469 900.964844 551.972656 L 899.304688 554.40625 L 895.308594 560.277344 L 893.710938 559.476562 L 895.152344 557.355469 C 895.820312 556.363281 896.492188 555.367188 897.160156 554.371094 L 898.238281 552.777344 C 900.28125 549.730469 902.230469 546.625 904.09375 543.464844 L 905.269531 541.472656 C 906.027344 540.179688 906.773438 538.882812 907.511719 537.578125 L 908.5625 535.792969 L 909.472656 534.195312 Z M 910.519531 533.0625 "/><path style=" stroke:none;fill-rule:nonzero;fill:#39d4e0;fill-opacity:1;" d="M 720.019531 527.460938 C 722.445312 527.945312 724.089844 528.714844 726.121094 530.113281 C 731.386719 533.503906 737.199219 535.492188 743.230469 537.066406 L 741.628906 538.664062 C 736.0625 538.578125 730.976562 536.074219 726.144531 533.539062 C 723.609375 532.015625 721.863281 530.5625 720.019531 528.261719 Z M 720.019531 527.460938 "/><path style=" stroke:none;fill-rule:nonzero;fill:#5edce6;fill-opacity:1;" d="M 975.351562 581.886719 L 976.953125 581.886719 C 976.304688 583.835938 976.304688 583.835938 975.351562 585.886719 L 972.949219 586.6875 C 972.667969 587.753906 972.402344 588.820312 972.152344 589.890625 C 971 591.289062 971 591.289062 969.75 592.292969 L 968.148438 592.292969 L 968 593.59375 C 967.066406 596.320312 965.320312 598.25 963.347656 600.296875 C 962.042969 601.398438 960.714844 602.476562 959.34375 603.496094 C 959.492188 602.203125 959.492188 602.203125 960.144531 600.296875 C 961.4375 598.613281 962.789062 596.980469 964.195312 595.394531 L 966.597656 592.625 L 967.800781 591.238281 C 969.996094 588.660156 972.046875 585.960938 974.105469 583.269531 Z M 975.351562 581.886719 "/><path style=" stroke:none;fill-rule:nonzero;fill:#80e3eb;fill-opacity:1;" d="M 1035.382812 579.484375 L 1036.183594 579.484375 C 1036.835938 582.539062 1037.324219 585.390625 1036.523438 588.453125 C 1035.207031 591.367188 1033.648438 593.460938 1031.128906 595.445312 C 1029.074219 596.75 1027.726562 597.203125 1025.277344 597.792969 C 1022.84375 597.882812 1020.914062 597.730469 1018.574219 597.09375 L 1018.574219 596.292969 L 1020.15625 596.054688 C 1023.507812 595.480469 1026.242188 594.867188 1029.28125 593.292969 C 1031.707031 591.214844 1033.128906 589.542969 1034.582031 586.6875 C 1035.050781 584.289062 1035.273438 581.925781 1035.382812 579.484375 "/><path style=" stroke:none;fill-rule:nonzero;fill:#23d0dd;fill-opacity:1;" d="M 1056.996094 560.277344 C 1058.488281 560.503906 1058.488281 560.503906 1060.195312 561.078125 C 1062.871094 564.425781 1064.011719 568.925781 1064.753906 573.074219 C 1065.265625 578.132812 1065.113281 583.214844 1065 588.289062 L 1064.199219 588.289062 L 1064.199219 577.085938 L 1062.597656 577.085938 L 1062.183594 575.234375 C 1060.945312 569.949219 1059.414062 565.140625 1056.996094 560.277344 "/><path style=" stroke:none;fill-rule:nonzero;fill:#3cd5e1;fill-opacity:1;" d="M 841.683594 533.863281 C 844.789062 536.636719 846.75 539.84375 848.886719 543.367188 C 849.570312 544.484375 850.253906 545.597656 850.9375 546.714844 L 851.925781 548.332031 C 852.832031 549.769531 853.769531 551.183594 854.738281 552.578125 L 856.089844 554.671875 L 856.089844 556.273438 L 853.6875 555.472656 C 852.480469 553.863281 852.480469 553.863281 851.1875 551.722656 C 849.523438 549.003906 847.855469 546.300781 846.089844 543.648438 L 845.082031 542.121094 C 844.421875 541.125 843.757812 540.132812 843.089844 539.144531 C 842.304688 537.949219 841.585938 536.707031 840.882812 535.464844 Z M 841.683594 533.863281 "/><path style=" stroke:none;fill-rule:nonzero;fill:#4ed9e3;fill-opacity:1;" d="M 971.351562 499.445312 L 972.152344 501.046875 L 971.101562 503.105469 C 969.246094 506.871094 968.554688 510.695312 967.710938 514.785156 C 967.367188 516.351562 966.960938 517.90625 966.546875 519.457031 L 964.945312 520.257812 C 964.578125 513.761719 966.03125 508.105469 968.597656 502.148438 L 969.75 500.246094 Z M 971.351562 499.445312 "/><path style=" stroke:none;fill-rule:nonzero;fill:#07cad9;fill-opacity:1;" d="M 914.519531 533.863281 C 915.800781 535.878906 916.125 537.140625 916.230469 539.558594 L 916.101562 542.453125 L 915.976562 545.597656 L 915.820312 548.871094 C 915.773438 549.972656 915.726562 551.078125 915.683594 552.179688 C 915.570312 554.878906 915.449219 557.578125 915.320312 560.277344 L 913.71875 560.277344 C 913.699219 556.773438 913.6875 553.265625 913.675781 549.761719 C 913.671875 548.570312 913.667969 547.378906 913.660156 546.183594 C 913.652344 544.472656 913.644531 542.761719 913.640625 541.046875 L 913.628906 537.921875 C 913.71875 535.464844 913.71875 535.464844 914.519531 533.863281 "/><path style=" stroke:none;fill-rule:nonzero;fill:#4f9dab;fill-opacity:1;" d="M 719.21875 231.316406 C 720.105469 232.738281 720.105469 232.738281 720.820312 234.515625 C 719.820312 236.550781 718.871094 238.269531 717.617188 240.121094 L 716.015625 242.519531 C 714.210938 243.695312 712.34375 244.761719 710.414062 245.722656 C 711.628906 242.175781 713.558594 239.296875 715.71875 236.269531 L 716.734375 234.820312 C 717.5625 233.648438 718.386719 232.480469 719.21875 231.316406 "/><path style=" stroke:none;fill-rule:nonzero;fill:#3adbe5;fill-opacity:1;" d="M 1005.769531 533.0625 C 1012.457031 534.863281 1019.121094 536.75 1025.777344 538.664062 L 1025.777344 540.265625 C 1021.199219 539.800781 1017.011719 538.9375 1012.621094 537.566406 L 1010.878906 537.058594 C 1009.222656 536.546875 1009.222656 536.546875 1006.570312 535.464844 Z M 1005.769531 533.0625 "/><path style=" stroke:none;fill-rule:nonzero;fill:#3bd5e0;fill-opacity:1;" d="M 752.035156 597.09375 C 750.175781 598.953125 748.9375 599.507812 746.433594 600.296875 C 743.675781 600.480469 743.675781 600.480469 740.730469 600.445312 L 737.773438 600.429688 C 735.226562 600.296875 735.226562 600.296875 732.824219 599.496094 L 732.824219 597.894531 C 734.144531 597.820312 734.144531 597.820312 735.488281 597.746094 L 738.980469 597.542969 L 740.726562 597.449219 C 743.183594 597.300781 745.488281 597.125 747.898438 596.617188 C 749.632812 596.292969 749.632812 596.292969 752.035156 597.09375 "/><path style=" stroke:none;fill-rule:nonzero;fill:#86e4ee;fill-opacity:1;" d="M 905.714844 494.644531 C 906.203125 496.074219 906.203125 496.074219 906.515625 497.84375 C 905.496094 499.832031 904.363281 501.75 903.113281 503.597656 C 902.789062 504.109375 902.460938 504.625 902.125 505.152344 C 901.242188 506.492188 900.28125 507.777344 899.3125 509.050781 L 896.910156 509.851562 C 898.179688 506.203125 900.105469 503.195312 902.214844 499.996094 L 903.234375 498.429688 C 904.058594 497.167969 904.886719 495.90625 905.714844 494.644531 "/><path style=" stroke:none;fill-rule:nonzero;fill:#56a0ae;fill-opacity:1;" d="M 705.613281 254.527344 L 707.210938 256.128906 L 706.113281 257.128906 C 704.757812 258.585938 704.074219 259.949219 703.210938 261.730469 C 701.035156 263.90625 698.769531 265.953125 696.007812 267.332031 C 697.234375 263.652344 699.140625 260.6875 701.609375 257.726562 C 703.859375 255.777344 703.859375 255.777344 705.613281 254.527344 "/><path style=" stroke:none;fill-rule:nonzero;fill:#61a6b3;fill-opacity:1;" d="M 680.796875 288.945312 L 683.199219 288.945312 L 683.199219 290.542969 L 681.597656 290.542969 L 681.597656 292.945312 L 680 292.945312 L 680 295.347656 L 678.398438 295.347656 L 678.296875 297.597656 L 677.597656 300.148438 C 675.144531 301.648438 675.144531 301.648438 672.792969 302.550781 C 673.984375 299.226562 675.613281 296.441406 677.546875 293.496094 L 679.21875 290.902344 Z M 680.796875 288.945312 "/><path style=" stroke:none;fill-rule:nonzero;fill:#6eaeba;fill-opacity:1;" d="M 695.207031 267.332031 L 698.40625 268.132812 L 696.007812 268.933594 C 695.511719 270.382812 695.511719 270.382812 695.207031 272.136719 C 694.707031 274.136719 694.707031 274.136719 693.605469 276.136719 C 691.804688 277.425781 689.996094 278.34375 688.003906 279.339844 C 689.113281 276.226562 690.574219 273.761719 692.503906 271.085938 L 694.035156 268.941406 Z M 695.207031 267.332031 "/><path style=" stroke:none;fill-rule:nonzero;fill:#62a7b4;fill-opacity:1;" d="M 631.972656 362.578125 L 634.375 362.578125 C 633.207031 365.886719 631.707031 368.59375 629.570312 371.382812 C 628.027344 372.613281 626.480469 373.574219 624.769531 374.585938 C 626.0625 371.882812 627.550781 369.335938 629.121094 366.78125 L 630.570312 364.394531 Z M 631.972656 362.578125 "/><path style=" stroke:none;fill-rule:nonzero;fill:#07cad9;fill-opacity:1;" d="M 1008.167969 597.09375 L 1022.578125 597.09375 L 1022.578125 598.695312 C 1019.609375 599.644531 1016.867188 599.652344 1013.773438 599.496094 C 1011.851562 599.066406 1010.042969 598.507812 1008.167969 597.894531 Z M 1008.167969 597.09375 "/><path style=" stroke:none;fill-rule:nonzero;fill:#25d2df;fill-opacity:1;" d="M 871.296875 580.285156 C 872.847656 580.984375 872.847656 580.984375 874.5 581.886719 L 875.300781 583.488281 L 876.75 582.6875 C 878.5 581.886719 878.5 581.886719 880.902344 581.886719 L 876.902344 588.289062 C 874.183594 585.789062 872.414062 583.835938 871.296875 580.285156 "/><path style=" stroke:none;fill-rule:nonzero;fill:#14ccdb;fill-opacity:1;" d="M 1028.179688 480.238281 C 1029.867188 480.574219 1031.550781 480.929688 1033.234375 481.289062 L 1036.074219 481.878906 C 1038.585938 482.636719 1038.585938 482.636719 1040.121094 483.921875 L 1040.984375 485.039062 L 1039.386719 485.839844 C 1037.3125 485.246094 1035.3125 484.605469 1033.28125 483.890625 L 1031.570312 483.300781 C 1030.171875 482.816406 1028.773438 482.328125 1027.378906 481.835938 Z M 1028.179688 480.238281 "/><path style=" stroke:none;fill-rule:nonzero;fill:#95e7ee;fill-opacity:1;" d="M 980.953125 487.441406 L 982.554688 488.242188 L 981.003906 489.742188 C 977.636719 493.101562 974.515625 496.695312 971.351562 500.246094 L 971.351562 497.84375 C 972.433594 496.351562 972.433594 496.351562 973.902344 494.742188 L 975.4375 493.050781 C 977.242188 491.136719 979.070312 489.269531 980.953125 487.441406 "/><path style=" stroke:none;fill-rule:nonzero;fill:#2dd2de;fill-opacity:1;" d="M 741.628906 537.863281 C 748.492188 538.664062 748.492188 538.664062 751.234375 539.464844 L 750.433594 541.867188 L 741.628906 539.464844 Z M 741.628906 537.863281 "/><path style=" stroke:none;fill-rule:nonzero;fill:#87e5ec;fill-opacity:1;" d="M 759.238281 588.289062 L 760.039062 588.289062 C 760.390625 589.992188 760.390625 589.992188 760.039062 592.292969 C 758.402344 594.210938 756.632812 595.84375 754.4375 597.09375 L 752.035156 596.292969 L 753.835938 594.992188 C 756.175781 592.972656 757.589844 590.882812 759.238281 588.289062 "/><path style=" stroke:none;fill-rule:nonzero;fill:#5fdce6;fill-opacity:1;" d="M 698.40625 586.6875 L 698.40625 589.089844 C 696.507812 591.242188 696.507812 591.242188 694.40625 593.09375 L 692.804688 593.09375 L 692.003906 595.492188 L 690.402344 594.691406 C 695.328125 588.703125 695.328125 588.703125 698.40625 586.6875 "/><path style=" stroke:none;fill-rule:nonzero;fill:#96e8f0;fill-opacity:1;" d="M 882.503906 531.460938 C 883.054688 532.8125 883.054688 532.8125 883.304688 534.664062 C 882.355469 536.765625 882.355469 536.765625 880.902344 538.664062 C 879.152344 539.714844 879.152344 539.714844 877.703125 540.265625 C 878.863281 536.976562 880.511719 534.316406 882.503906 531.460938 "/><path style=" stroke:none;fill-rule:nonzero;fill:#a6ebf2;fill-opacity:1;" d="M 896.109375 509.851562 C 896.710938 511.152344 896.710938 511.152344 896.910156 513.054688 C 895.511719 515.605469 895.511719 515.605469 893.710938 517.855469 L 891.308594 518.65625 C 892.46875 515.367188 894.117188 512.707031 896.109375 509.851562 "/><path style=" stroke:none;fill-rule:nonzero;fill:#65dde7;fill-opacity:1;" d="M 971.351562 499.445312 L 972.152344 501.046875 C 971.148438 503.5 971.148438 503.5 969.75 505.847656 L 967.347656 506.648438 C 968 503.949219 968 503.949219 968.949219 501.046875 Z M 971.351562 499.445312 "/><path style=" stroke:none;fill-rule:nonzero;fill:#8ee6ed;fill-opacity:1;" d="M 963.347656 596.292969 L 964.945312 597.09375 C 964.03125 599.421875 963.1875 600.433594 961.246094 602.097656 L 959.34375 603.496094 C 959.695312 601.125 960.316406 600.0625 961.796875 598.09375 Z M 963.347656 596.292969 "/><path style=" stroke:none;fill-rule:nonzero;fill:#aaecf3;fill-opacity:1;" d="M 905.714844 494.644531 C 906.367188 495.996094 906.367188 495.996094 906.515625 497.84375 C 904.566406 500.046875 904.566406 500.046875 902.515625 501.847656 L 902.515625 499.445312 C 903.535156 497.816406 904.601562 496.214844 905.714844 494.644531 "/><path style=" stroke:none;fill-rule:nonzero;fill:#82e4eb;fill-opacity:1;" d="M 1004.96875 479.4375 L 1003.367188 480.238281 L 1003.367188 481.835938 C 1001.066406 481.9375 1001.066406 481.9375 998.5625 481.835938 L 996.964844 480.238281 C 999.667969 479.40625 1002.148438 479.371094 1004.96875 479.4375 "/><path style=" stroke:none;fill-rule:nonzero;fill:#99c6ce;fill-opacity:1;" d="M 719.21875 231.316406 L 720.820312 234.515625 C 717.019531 237.617188 717.019531 237.617188 715.214844 238.519531 C 716.21875 235.75 717.359375 233.597656 719.21875 231.316406 "/><path style=" stroke:none;fill-rule:nonzero;fill:#89e5ec;fill-opacity:1;" d="M 975.351562 581.886719 L 976.953125 581.886719 C 976.402344 583.738281 976.402344 583.738281 975.351562 585.886719 C 973.25 587.339844 973.25 587.339844 971.351562 588.289062 C 972.445312 585.929688 973.652344 583.867188 975.351562 581.886719 "/><path style=" stroke:none;fill-rule:nonzero;fill:#a1eaf2;fill-opacity:1;" d="M 886.507812 525.058594 C 887.105469 526.460938 887.105469 526.460938 887.304688 528.261719 C 885.757812 530.0625 885.757812 530.0625 884.105469 531.460938 L 883.304688 529.859375 Z M 886.507812 525.058594 "/><path style=" stroke:none;fill-rule:nonzero;fill:#72b0bb;fill-opacity:1;" d="M 636.777344 355.375 L 639.175781 355.375 L 639.175781 356.976562 L 637.578125 356.976562 L 637.578125 359.378906 C 635.574219 360.730469 635.574219 360.730469 633.574219 361.777344 C 634.476562 359.398438 635.355469 357.507812 636.777344 355.375 "/></g></svg>