<svg xmlns="http://www.w3.org/2000/svg" xmlns:xlink="http://www.w3.org/1999/xlink" width="1920" zoomAndPan="magnify" viewBox="0 0 1440 809.999993" height="1080" preserveAspectRatio="xMidYMid meet" version="1.2"><g id="b5b058e2c3"><path style=" stroke:none;fill-rule:nonzero;fill:#026275;fill-opacity:1;" d="M 373.792969 268.132812 L 437.027344 268.132812 C 444.269531 278.089844 444.269531 278.089844 447.234375 282.992188 C 449.953125 287.414062 452.753906 291.78125 455.636719 296.097656 L 456.792969 297.824219 L 459.433594 301.757812 C 462.910156 306.9375 466.378906 312.121094 469.84375 317.308594 L 471.015625 319.058594 C 475.828125 326.265625 480.578125 333.503906 485.167969 340.855469 C 489.09375 347.144531 493.21875 353.296875 497.378906 359.429688 C 498.140625 360.554688 498.902344 361.679688 499.664062 362.804688 C 500.378906 363.867188 501.101562 364.925781 501.824219 365.984375 C 502.660156 367.234375 503.472656 368.503906 504.261719 369.78125 L 504.261719 371.382812 L 505.863281 371.382812 L 506.496094 369.640625 C 507.503906 367.292969 508.691406 365.386719 510.132812 363.28125 L 511.871094 360.710938 L 512.835938 359.292969 C 514.769531 356.449219 516.671875 353.585938 518.578125 350.722656 L 521.222656 346.765625 C 531.375 331.554688 541.480469 316.308594 551.53125 301.027344 C 554.179688 296.996094 556.835938 292.96875 559.492188 288.945312 L 560.8125 286.9375 C 562.097656 284.996094 563.382812 283.054688 564.667969 281.113281 L 565.808594 279.386719 C 568.382812 275.515625 571.097656 271.867188 573.898438 268.132812 L 635.53125 268.132812 L 635.53125 399.398438 L 579.5 399.398438 L 578.703125 354.574219 L 570.695312 366.582031 C 568.859375 369.316406 567.019531 372.046875 565.175781 374.777344 L 557.6875 385.867188 C 550.316406 396.773438 542.984375 407.714844 535.703125 418.679688 L 534.628906 420.289062 C 525.761719 433.621094 516.851562 446.917969 507.816406 460.136719 C 506.890625 461.496094 505.972656 462.859375 505.0625 464.230469 C 502.988281 463.414062 501.925781 462.707031 500.523438 460.949219 L 499.203125 458.867188 C 498.707031 458.09375 498.214844 457.324219 497.703125 456.527344 L 496.160156 454.074219 L 493.148438 449.363281 L 491.558594 446.859375 C 489.398438 443.507812 487.183594 440.195312 484.96875 436.878906 C 482.519531 433.21875 480.085938 429.542969 477.671875 425.859375 L 476.621094 424.253906 C 475.207031 422.097656 473.796875 419.945312 472.386719 417.789062 C 467.6875 410.605469 462.953125 403.445312 458.183594 396.308594 C 454.480469 390.765625 450.777344 385.222656 447.078125 379.679688 L 444.0625 375.164062 C 442.589844 372.957031 441.113281 370.746094 439.636719 368.535156 L 438.292969 366.519531 L 437.011719 364.601562 L 435.90625 362.945312 C 434.105469 360.179688 432.367188 357.375 430.625 354.574219 L 430.625 356.757812 C 430.644531 374.285156 430.65625 391.816406 430.664062 409.34375 C 430.667969 417.820312 430.675781 426.296875 430.683594 434.773438 C 430.691406 442.164062 430.699219 449.554688 430.699219 456.941406 C 430.699219 460.855469 430.703125 464.765625 430.707031 468.679688 C 430.714844 472.363281 430.714844 476.046875 430.714844 479.730469 C 430.714844 481.082031 430.714844 482.429688 430.71875 483.78125 C 430.722656 485.628906 430.722656 487.476562 430.71875 489.324219 L 430.722656 492.457031 C 430.617188 495.597656 430.214844 498.726562 429.824219 501.847656 L 373.792969 501.847656 Z M 373.792969 268.132812 "/><path style=" stroke:none;fill-rule:nonzero;fill:#006174;fill-opacity:1;" d="M 709.167969 268.933594 L 946.894531 268.933594 L 946.894531 335.367188 L 709.167969 335.367188 Z M 709.167969 268.933594 "/><path style=" stroke:none;fill-rule:nonzero;fill:#e32637;fill-opacity:1;" d="M 641.933594 268.132812 C 643.929688 268.058594 645.90625 268.03125 647.902344 268.042969 L 649.828125 268.042969 C 651.890625 268.042969 653.957031 268.046875 656.019531 268.054688 C 657.289062 268.054688 658.5625 268.058594 659.832031 268.058594 C 664.554688 268.0625 669.277344 268.074219 674 268.082031 L 705.96875 268.132812 L 705.96875 336.167969 L 641.132812 336.167969 C 641.101562 319.417969 641.101562 319.417969 641.09375 312.308594 C 641.089844 307.445312 641.082031 302.582031 641.074219 297.71875 C 641.066406 293.800781 641.058594 289.882812 641.058594 285.964844 C 641.054688 284.464844 641.054688 282.96875 641.050781 281.46875 C 641.042969 279.378906 641.042969 277.289062 641.042969 275.195312 L 641.035156 273.300781 C 641.035156 271.84375 641.082031 270.390625 641.132812 268.933594 Z M 641.933594 268.132812 "/><path style=" stroke:none;fill-rule:nonzero;fill:#006074;fill-opacity:1;" d="M 657.492188 277.9375 C 660.34375 278.539062 660.34375 278.539062 662.296875 279.6875 L 663.546875 280.941406 L 663.546875 282.539062 L 665.144531 282.539062 L 665.347656 281.039062 L 665.945312 279.339844 C 667.820312 278.09375 669.171875 277.734375 671.421875 277.496094 C 672.238281 277.492188 673.058594 277.492188 673.898438 277.488281 L 676.375 277.449219 C 678.753906 277.738281 678.753906 277.738281 681.007812 278.804688 L 682.753906 280.140625 L 683.554688 282.539062 L 684.808594 280.589844 C 686.757812 278.539062 686.757812 278.539062 689.457031 277.738281 C 692.359375 277.738281 692.359375 277.738281 695.011719 278.738281 C 697.164062 280.140625 697.164062 280.140625 698.765625 282.539062 C 699.03125 287.609375 699.03125 287.609375 697.964844 289.742188 L 695.5625 288.945312 L 695.5625 287.34375 L 693.160156 287.34375 L 694.710938 289.59375 C 696.28125 292.019531 697.085938 293.621094 697.324219 296.480469 C 697.410156 301.492188 697.015625 305.242188 694.761719 309.753906 L 692.359375 310.554688 L 693.160156 308.503906 C 694.03125 305.515625 694.246094 303.246094 693.960938 300.148438 C 693.253906 298.117188 693.253906 298.117188 691.558594 296.949219 C 688.828125 296.347656 688.828125 296.347656 685.957031 296.949219 C 683.851562 298.6875 682.375 300.105469 681.15625 302.550781 C 680.976562 303.914062 680.824219 305.28125 680.703125 306.652344 L 680.5 308.859375 L 680.355469 310.554688 L 677.953125 311.355469 L 679.109375 312.707031 C 680.863281 315.3125 680.980469 317.550781 681.21875 320.625 C 681.15625 322.558594 681.15625 322.558594 680.003906 325.0625 L 678.753906 326.5625 L 675.800781 326.113281 C 673.125 325.769531 670.972656 325.824219 668.347656 326.5625 C 667.546875 325.359375 667.546875 325.359375 666.746094 323.359375 C 666.570312 319.65625 666.824219 316.582031 667.546875 312.957031 L 666.746094 310.554688 C 666.75 309.402344 666.785156 308.253906 666.847656 307.101562 C 666.878906 304.460938 666.667969 303.144531 665.695312 300.597656 C 664.421875 298.375 664.421875 298.375 661.945312 296.949219 C 659.144531 296.546875 659.144531 296.546875 656.339844 296.949219 C 654.648438 298.117188 654.648438 298.117188 653.941406 300.148438 C 653.71875 303.238281 653.792969 305.992188 654.742188 308.953125 L 652.339844 308.152344 C 651.003906 305.617188 650.378906 302.972656 649.9375 300.148438 C 650.207031 295.457031 651.585938 291.410156 653.941406 287.34375 L 652.441406 288.945312 L 650.738281 290.542969 L 649.136719 290.542969 C 648.949219 287.851562 648.871094 285.230469 649.136719 282.539062 C 650.589844 280.089844 650.589844 280.089844 652.339844 278.539062 C 654.742188 277.738281 654.742188 277.738281 657.492188 277.9375 "/><path style=" stroke:none;fill-rule:nonzero;fill:#056476;fill-opacity:1;" d="M 867.652344 355.375 L 874.054688 355.375 C 875.453125 356.449219 875.453125 356.449219 876.289062 357.953125 L 877.265625 359.617188 L 878.207031 361.378906 L 879.175781 363.066406 C 879.820312 364.191406 880.453125 365.320312 881.082031 366.453125 C 882.648438 369.222656 884.351562 371.902344 886.0625 374.585938 C 888.375 371.203125 890.636719 367.855469 892.5625 364.230469 L 893.464844 362.582031 C 894.058594 361.492188 894.632812 360.390625 895.1875 359.28125 C 896.035156 357.75 896.035156 357.75 898.066406 355.375 L 904.472656 355.375 L 904.472656 387.390625 L 897.265625 387.390625 L 896.464844 370.582031 C 894.464844 373.863281 894.464844 373.863281 892.46875 377.144531 C 890.972656 379.585938 889.429688 381.9375 887.660156 384.191406 C 885.898438 384.160156 885.898438 384.160156 883.660156 383.390625 C 882.109375 381.566406 881.003906 379.527344 879.859375 377.4375 L 878.890625 375.753906 C 877.769531 373.785156 876.667969 371.808594 875.65625 369.78125 L 874.855469 387.390625 L 868.453125 387.390625 Z M 867.652344 355.375 "/><path style=" stroke:none;fill-rule:nonzero;fill:#e4293a;fill-opacity:1;" d="M 643.535156 355.375 L 649.136719 355.375 C 650.484375 356.527344 650.484375 356.527344 651.4375 358.226562 L 652.589844 360.179688 L 653.941406 362.578125 C 654.570312 363.632812 655.203125 364.683594 655.839844 365.730469 C 657.625 368.671875 659.390625 371.625 661.144531 374.585938 C 663.433594 371.699219 665.273438 368.59375 667.148438 365.429688 L 668.09375 363.839844 L 669.023438 362.28125 L 669.9375 360.78125 C 670.859375 359.253906 670.859375 359.253906 671.773438 357 L 673.148438 355.375 L 679.554688 355.375 L 679.554688 387.390625 L 673.148438 387.390625 L 673.148438 368.984375 L 671.550781 368.984375 L 670.957031 370.617188 C 669.730469 373.496094 668.222656 376.136719 666.648438 378.835938 L 665.742188 380.402344 C 665.011719 381.664062 664.28125 382.929688 663.546875 384.191406 C 661.808594 384.582031 661.808594 384.582031 659.542969 384.191406 C 657.816406 382.289062 656.609375 380.109375 655.339844 377.886719 L 654.257812 376.078125 C 653.027344 374.003906 651.816406 371.9375 650.738281 369.78125 L 649.9375 387.390625 L 643.535156 387.390625 Z M 643.535156 355.375 "/><path style=" stroke:none;fill-rule:nonzero;fill:#e42d3d;fill-opacity:1;" d="M 808.722656 357.476562 C 812.03125 360.472656 814.214844 363.953125 815.625 368.183594 C 815.949219 371.953125 815.769531 374.757812 814.375 378.285156 C 812.84375 381.402344 811.050781 383.558594 808.300781 385.667969 C 804.972656 387.742188 801.558594 388.277344 797.714844 388.492188 C 794.289062 388.394531 791.539062 387.570312 788.472656 386.058594 C 785.082031 383.878906 782.941406 380.960938 780.90625 377.535156 C 780.109375 374.109375 779.980469 370.878906 780.40625 367.382812 C 781.316406 364.410156 782.632812 362.03125 784.75 359.75 C 787.765625 357.074219 790.710938 355.863281 794.511719 354.777344 C 799.519531 354.40625 804.203125 355.300781 808.722656 357.476562 M 790.8125 363.378906 C 788.796875 365.46875 788.796875 365.46875 787.609375 368.183594 C 787.203125 370.519531 787.339844 372.15625 787.609375 374.585938 C 788.664062 377.023438 789.921875 378.488281 791.710938 380.4375 C 794.039062 381.804688 795.003906 382.042969 797.613281 382.140625 C 799.972656 382.027344 801.316406 381.746094 803.519531 380.789062 C 805.339844 379.289062 806.496094 378.269531 807.621094 376.1875 C 808.386719 373.121094 808.785156 371.0625 807.921875 368.027344 C 807.160156 366.304688 806.363281 364.875 805.21875 363.378906 C 802.722656 361.644531 801.015625 361.054688 798.015625 360.679688 C 795.082031 361.046875 793.292969 361.761719 790.8125 363.378906 "/><path style=" stroke:none;fill-rule:nonzero;fill:#e32637;fill-opacity:1;" d="M 805.21875 293.746094 L 810.023438 294.546875 L 810.023438 301.75 L 811.621094 301.75 L 812.121094 300.449219 C 813.734375 297.664062 815.191406 295.390625 818.027344 293.746094 C 821.265625 293.339844 824.382812 293.460938 827.628906 293.746094 C 828.132812 294.84375 828.632812 295.945312 829.132812 297.046875 L 829.976562 298.902344 C 830.917969 301.152344 831.6875 303.429688 832.433594 305.75 L 833.28125 303.328125 L 834.382812 300.199219 L 834.941406 298.597656 C 836.34375 294.636719 836.34375 294.636719 837.234375 293.746094 C 838.570312 293.710938 839.902344 293.710938 841.238281 293.746094 C 841.90625 295.445312 842.574219 297.144531 843.238281 298.847656 L 844.363281 301.71875 C 845.238281 304.152344 845.238281 304.152344 845.238281 305.75 L 846.839844 305.75 L 847.039062 303.351562 C 847.53125 299.769531 849.097656 296.871094 850.84375 293.746094 L 854.042969 293.746094 C 853.589844 298.359375 852.679688 302.503906 851.242188 306.902344 L 850.695312 308.644531 C 849.355469 312.839844 849.355469 312.839844 848.441406 313.753906 C 846.839844 313.789062 845.238281 313.789062 843.640625 313.753906 L 838.835938 301.75 L 837.988281 304.171875 L 836.886719 307.300781 L 836.328125 308.902344 C 834.925781 312.863281 834.925781 312.863281 834.035156 313.753906 C 832.699219 313.789062 831.367188 313.789062 830.03125 313.753906 C 827.625 307.96875 825.554688 302.109375 823.628906 296.148438 C 820.613281 297.523438 818.707031 299.34375 816.425781 301.75 C 817.492188 305.269531 819.359375 307.417969 821.835938 310.035156 L 822.828125 311.355469 L 822.828125 313.753906 C 820.726562 314.15625 820.726562 314.15625 818.027344 313.753906 C 816.128906 311.808594 814.667969 309.648438 813.222656 307.351562 L 810.820312 308.152344 C 809.835938 310.964844 809.835938 310.964844 809.222656 313.753906 L 805.21875 313.753906 Z M 805.21875 293.746094 "/><path style=" stroke:none;fill-rule:nonzero;fill:#07bfc9;fill-opacity:1;" d="M 626.726562 465.828125 L 631.527344 465.828125 C 632.992188 467.039062 632.992188 467.039062 634.1875 468.722656 L 635.53125 470.546875 L 636.882812 472.484375 C 637.785156 473.730469 638.6875 474.980469 639.59375 476.226562 L 640.78125 477.914062 C 641.875 479.355469 643.023438 480.59375 644.335938 481.835938 L 649.039062 475.183594 L 650.386719 473.277344 L 651.683594 471.441406 L 652.875 469.753906 C 653.777344 468.457031 654.667969 467.148438 655.542969 465.828125 L 661.144531 465.828125 L 661.144531 501.046875 L 656.339844 501.046875 L 655.542969 475.433594 L 651.640625 480.488281 L 650.417969 482.066406 C 648.859375 484.089844 647.355469 486.113281 645.9375 488.242188 C 643.992188 488.566406 643.992188 488.566406 641.933594 488.242188 C 640.597656 487.066406 640.597656 487.066406 639.441406 485.4375 L 638.289062 483.863281 L 636.882812 481.835938 L 632.328125 475.433594 L 631.527344 501.046875 L 626.726562 501.046875 Z M 626.726562 465.828125 "/><path style=" stroke:none;fill-rule:nonzero;fill:#e42d3e;fill-opacity:1;" d="M 695.5625 355.375 L 702.765625 355.375 L 702.8125 357.308594 C 702.890625 360.199219 702.976562 363.089844 703.066406 365.980469 C 703.089844 366.984375 703.117188 367.988281 703.140625 369.023438 L 703.234375 371.945312 L 703.3125 374.640625 C 703.558594 376.921875 703.914062 378.285156 705.167969 380.1875 C 707.25 381.226562 709.222656 381.203125 711.515625 381.328125 C 713.296875 381.089844 713.296875 381.089844 714.84375 379.667969 C 716.535156 377.886719 716.535156 377.886719 716.808594 375.539062 L 716.859375 372.976562 L 716.9375 370.1875 L 716.972656 367.28125 L 717.046875 364.359375 C 717.117188 361.363281 717.171875 358.371094 717.171875 355.375 L 724.378906 355.375 C 724.4375 358.59375 724.480469 361.8125 724.507812 365.027344 C 724.519531 366.121094 724.535156 367.214844 724.558594 368.308594 C 724.585938 369.886719 724.597656 371.460938 724.613281 373.039062 L 724.648438 375.910156 C 724.34375 378.914062 723.5 380.804688 721.976562 383.390625 C 720.324219 385.4375 719.046875 386.460938 716.671875 387.589844 C 712.433594 388.535156 708.351562 388.910156 704.140625 387.640625 C 701.175781 386.3125 699.667969 385.121094 697.613281 382.539062 C 695.746094 379.03125 695.464844 376.578125 695.484375 372.648438 L 695.492188 369.609375 L 695.511719 366.429688 C 695.515625 365.363281 695.519531 364.292969 695.523438 363.226562 C 695.53125 360.609375 695.546875 357.992188 695.5625 355.375 "/><path style=" stroke:none;fill-rule:nonzero;fill:#12c1cc;fill-opacity:1;" d="M 586.707031 414.605469 C 601.914062 414.605469 601.914062 414.605469 606.714844 417.007812 C 608.265625 419.15625 608.265625 419.15625 609.117188 421.808594 C 609.101562 424.625 608.789062 427.265625 607.515625 429.8125 L 605.914062 429.8125 L 605.914062 431.414062 L 607.417969 432.113281 C 609.117188 433.015625 609.117188 433.015625 610.71875 434.613281 C 611.398438 437.277344 611.617188 439.875 611.519531 442.617188 C 610.21875 445.371094 610.21875 445.371094 608.316406 447.421875 L 604.316406 449.820312 L 586.707031 449.820312 Z M 591.507812 419.40625 L 591.507812 429.011719 C 593.175781 429.097656 594.84375 429.160156 596.511719 429.210938 L 599.324219 429.324219 C 601.96875 429.222656 601.96875 429.222656 603.859375 427.554688 L 605.113281 425.808594 C 605.121094 423.308594 605.121094 423.308594 604.316406 421.007812 L 602.714844 419.40625 C 600.027344 419.210938 600.027344 419.210938 597.011719 419.308594 L 593.902344 419.351562 Z M 591.507812 433.8125 L 591.507812 445.019531 C 593.59375 445.105469 595.675781 445.167969 597.761719 445.21875 L 599.550781 445.300781 C 601.5 445.371094 601.5 445.371094 604.316406 445.019531 C 605.984375 443.664062 605.984375 443.664062 606.714844 441.816406 C 607.183594 439.417969 607.183594 439.417969 606.714844 437.015625 C 605.53125 435.15625 605.53125 435.15625 603.515625 433.8125 C 601.324219 433.582031 599.480469 433.507812 597.3125 433.613281 L 595.621094 433.65625 C 594.25 433.695312 592.878906 433.753906 591.507812 433.8125 "/><path style=" stroke:none;fill-rule:nonzero;fill:#066577;fill-opacity:1;" d="M 845.390625 355.226562 C 846.210938 355.363281 847.03125 355.5 847.875 355.640625 C 850.042969 356.175781 850.042969 356.175781 852.445312 357.777344 L 850.84375 363.378906 L 848.992188 362.578125 C 845.039062 361.507812 841.304688 361.648438 837.234375 361.777344 C 835.976562 364.054688 835.976562 364.054688 835.636719 366.582031 C 836.195312 366.726562 836.757812 366.871094 837.335938 367.023438 C 849.609375 370.273438 849.609375 370.273438 852.84375 373.183594 C 854.042969 375.386719 854.042969 375.386719 854.445312 378.136719 C 854.042969 380.988281 854.042969 380.988281 852.84375 383.589844 C 851.058594 385.554688 850.261719 386.285156 847.941406 387.292969 C 843.324219 388.726562 838.886719 388.691406 834.175781 387.730469 C 830.207031 386.664062 830.207031 386.664062 828.429688 385.789062 L 827.628906 383.390625 C 828.382812 381.238281 828.382812 381.238281 829.230469 379.386719 L 830.90625 379.941406 C 836.109375 381.535156 839.882812 381.953125 845.238281 380.988281 C 845.785156 379.472656 845.785156 379.472656 846.039062 377.785156 C 843.796875 375.542969 841.117188 375.148438 838.136719 374.335938 L 836.386719 373.878906 C 833.476562 373.046875 831.878906 372.417969 829.652344 370.273438 C 828.429688 368.183594 828.429688 368.183594 827.976562 366.355469 C 827.980469 364.488281 828.042969 362.8125 828.429688 360.980469 C 830.128906 358.765625 831.660156 357.476562 833.984375 355.976562 C 837.902344 354.550781 841.316406 354.507812 845.390625 355.226562 "/><path style=" stroke:none;fill-rule:nonzero;fill:#076578;fill-opacity:1;" d="M 942.890625 356.976562 L 942.089844 362.578125 C 939.6875 362.578125 939.6875 362.578125 938.195312 362.183594 C 936.214844 361.714844 934.421875 361.671875 932.386719 361.679688 L 930.277344 361.671875 C 928.453125 361.664062 928.453125 361.664062 926.882812 362.578125 L 927.683594 366.582031 L 930.34375 367.316406 C 931.507812 367.65625 932.671875 367.992188 933.835938 368.332031 L 935.585938 368.808594 C 938.558594 369.691406 940.417969 370.523438 942.878906 372.5 C 944.492188 374.585938 944.492188 374.585938 944.996094 376.410156 C 944.90625 379.445312 944.714844 381.378906 943.242188 384.089844 C 940.867188 386.160156 938.734375 387.464844 935.6875 388.191406 C 930.527344 388.761719 925.949219 388.207031 921.023438 386.628906 L 919.679688 385.789062 C 918.984375 384.300781 918.984375 384.300781 918.878906 382.589844 C 919.628906 380.789062 919.628906 380.789062 920.480469 379.386719 L 922.152344 379.941406 C 927.355469 381.535156 931.128906 381.953125 936.488281 380.988281 L 936.488281 376.988281 L 934.003906 376.195312 L 930.734375 375.136719 L 929.101562 374.617188 C 925.980469 373.597656 923.144531 372.558594 920.480469 370.582031 C 919.285156 368.847656 918.90625 367.726562 918.730469 365.632812 C 918.886719 363.71875 919.125 362.019531 919.679688 360.179688 C 922.164062 357.328125 923.84375 356.433594 927.332031 355.027344 C 932.136719 354.015625 938.5 354.78125 942.890625 356.976562 "/><path style=" stroke:none;fill-rule:nonzero;fill:#e42c3d;fill-opacity:1;" d="M 737.984375 355.375 C 740.851562 354.730469 743.144531 354.574219 745.988281 355.375 C 748.894531 358.285156 751.042969 361.488281 753.191406 364.980469 C 755.421875 362.90625 756.804688 361.117188 758.09375 358.378906 C 759.085938 356.6875 759.085938 356.6875 760.394531 355.375 C 763.140625 354.820312 765.640625 354.988281 768.398438 355.375 C 766.011719 359.855469 763.148438 363.75 760.003906 367.742188 L 758.796875 369.78125 C 759.121094 372.414062 760.234375 374.125 761.773438 376.246094 L 763.078125 378.0625 L 764.449219 379.9375 C 765.34375 381.171875 766.234375 382.410156 767.128906 383.648438 L 768.332031 385.300781 L 769.199219 386.589844 L 769.199219 387.390625 C 766.085938 388.011719 763.484375 388.214844 760.394531 387.390625 C 758.246094 385.070312 756.789062 382.71875 755.242188 379.964844 C 754.828125 379.246094 754.414062 378.527344 753.992188 377.785156 L 752.390625 376.988281 L 751.714844 378.347656 L 750.789062 380.1875 L 749.867188 382.078125 C 748.714844 384.125 747.683594 385.753906 745.988281 387.390625 C 743.222656 388.007812 740.769531 387.835938 737.984375 387.390625 C 739.644531 383.578125 742.324219 380.382812 744.820312 377.09375 C 745.800781 375.761719 746.699219 374.375 747.589844 372.984375 C 747.847656 369.945312 747.847656 369.945312 746.707031 368.183594 L 745.488281 366.523438 L 744.175781 364.703125 L 742.785156 362.828125 C 741.886719 361.59375 740.984375 360.355469 740.085938 359.117188 L 738.867188 357.464844 L 737.984375 356.175781 Z M 737.984375 355.375 "/><path style=" stroke:none;fill-rule:nonzero;fill:#0cc0cb;fill-opacity:1;" d="M 685.957031 415.40625 C 689.246094 416.824219 691.433594 419.046875 693.671875 421.796875 C 695.894531 425.082031 697.003906 428.4375 697.292969 432.390625 C 697.125 436.078125 696 438.855469 694.210938 442.070312 C 692.664062 444.449219 691.394531 445.960938 689.210938 447.820312 C 685.316406 449.726562 681.953125 450.828125 677.601562 450.574219 C 674.210938 450.082031 671.722656 448.871094 668.921875 446.921875 C 666.042969 444.613281 664.371094 442.128906 662.945312 438.765625 C 661.8125 435.449219 661.449219 432.488281 661.945312 429.011719 C 662.78125 425.578125 664.121094 422.941406 666.097656 420.007812 C 669.128906 417.042969 672.308594 415.425781 676.300781 414.082031 C 679.585938 413.527344 682.792969 414.542969 685.957031 415.40625 M 675.050781 419.457031 C 671.3125 421.605469 669.460938 423.9375 667.246094 427.660156 C 666.492188 430.90625 666.761719 433.789062 667.546875 437.015625 C 668.941406 439.65625 670.457031 441.511719 672.5 443.667969 C 675.117188 445.238281 677.109375 445.738281 680.132812 445.953125 C 682.078125 445.8125 683.289062 445.429688 685.007812 444.519531 C 687.4375 442.707031 689.082031 441.128906 690.757812 438.617188 C 691.929688 435.109375 692.042969 431.875 691.558594 428.210938 C 690.21875 424.894531 688.421875 422.511719 685.65625 420.257812 C 681.8125 418.699219 679.070312 418.277344 675.050781 419.457031 "/><path style=" stroke:none;fill-rule:nonzero;fill:#0abfca;fill-opacity:1;" d="M 623.523438 414.605469 C 639.53125 414.605469 639.53125 414.605469 644.335938 417.007812 C 646.238281 418.707031 646.238281 418.707031 647.535156 421.007812 C 648.035156 423.515625 648.058594 425.707031 647.535156 428.210938 C 645.960938 431.046875 643.828125 432.820312 641.132812 434.613281 L 642.089844 435.839844 C 643.507812 437.660156 644.921875 439.488281 646.335938 441.316406 L 647.839844 443.242188 L 649.261719 445.089844 L 650.582031 446.789062 L 651.539062 448.222656 L 651.539062 449.820312 C 649.214844 450.304688 648.160156 450.503906 645.9375 449.820312 C 642.890625 446.910156 640.566406 443.414062 638.285156 439.890625 L 637.132812 438.164062 L 636.179688 436.613281 L 634.730469 435.414062 L 628.328125 434.613281 L 628.328125 449.820312 L 623.523438 449.820312 Z M 628.328125 419.40625 L 628.328125 429.8125 C 630.277344 429.898438 632.226562 429.960938 634.179688 430.011719 L 635.855469 430.09375 C 637.683594 430.164062 637.683594 430.164062 640.332031 429.8125 C 642.019531 428.488281 642.019531 428.488281 642.734375 426.609375 C 642.671875 423.71875 642.671875 423.71875 641.933594 421.007812 L 640.332031 419.40625 C 638.300781 419.292969 636.265625 419.257812 634.230469 419.308594 L 632.515625 419.328125 C 631.121094 419.347656 629.722656 419.375 628.328125 419.40625 "/><path style=" stroke:none;fill-rule:nonzero;fill:#0bc0ca;fill-opacity:1;" d="M 752.390625 414.605469 C 766.800781 414.605469 766.800781 414.605469 773.203125 417.007812 C 776.3125 419.5625 778.0625 422.101562 779.605469 425.808594 C 780.671875 429.589844 780.863281 433.355469 780.007812 437.207031 C 778.746094 441.453125 777.179688 444.320312 774.003906 447.421875 C 769.199219 449.820312 769.199219 449.820312 752.390625 449.820312 Z M 757.195312 419.40625 L 757.195312 445.019531 L 768.398438 445.019531 C 771.128906 443.382812 772.433594 442.238281 774.101562 439.597656 C 775.609375 435.773438 775.125 431.445312 774.804688 427.410156 C 774.023438 424.578125 774.023438 424.578125 772.402344 422.609375 L 768.398438 419.40625 Z M 757.195312 419.40625 "/><path style=" stroke:none;fill-rule:nonzero;fill:#04bec9;fill-opacity:1;" d="M 725.175781 465.828125 C 741.984375 465.828125 741.984375 465.828125 746.789062 468.230469 C 748.289062 469.980469 748.289062 469.980469 749.191406 472.234375 C 749.511719 474.429688 749.515625 476.441406 749.191406 478.636719 C 747.738281 481.996094 745.632812 483.625 742.785156 485.839844 L 743.816406 487.148438 C 745.339844 489.097656 746.867188 491.042969 748.390625 492.992188 L 750.007812 495.054688 L 751.539062 497.015625 L 752.964844 498.832031 L 753.992188 500.246094 L 753.992188 501.046875 C 751.636719 501.296875 749.882812 501.46875 747.589844 501.046875 C 745.785156 499.34375 744.664062 498.0625 743.335938 496.042969 L 742.328125 494.621094 C 741.402344 493.304688 740.488281 491.976562 739.585938 490.640625 L 738.148438 488.804688 L 737.183594 487.441406 L 737.183594 485.839844 L 729.980469 485.839844 L 729.980469 501.046875 L 725.175781 501.046875 Z M 729.980469 469.832031 L 729.980469 481.039062 L 735.382812 481.238281 L 738.421875 481.347656 L 741.1875 481.039062 C 743.171875 479.683594 743.171875 479.683594 744.386719 477.835938 C 744.921875 475.433594 744.921875 475.433594 744.386719 473.035156 C 743.171875 471.183594 743.171875 471.183594 741.1875 469.832031 C 738.382812 469.445312 738.382812 469.445312 735.382812 469.632812 Z M 843.640625 465.828125 L 860.449219 465.828125 C 865.425781 468.816406 865.425781 468.816406 866.851562 470.632812 C 867.570312 473.019531 867.71875 475.347656 867.652344 477.835938 C 866.75 480.488281 866.75 480.488281 865.25 482.636719 C 863.9375 483.730469 862.601562 484.796875 861.25 485.839844 L 862.710938 487.742188 C 865.984375 492.03125 869.148438 496.253906 871.652344 501.046875 C 869.167969 501.410156 867.644531 501.625 865.25 501.046875 C 863.070312 499.101562 861.632812 496.765625 860.097656 494.292969 L 858.816406 492.347656 C 858.039062 491.164062 857.273438 489.976562 856.515625 488.78125 C 855.730469 487.46875 855.730469 487.46875 854.84375 486.640625 L 848.441406 485.839844 L 848.441406 501.046875 L 843.640625 501.046875 Z M 848.441406 469.832031 L 848.441406 481.039062 L 853.84375 481.289062 L 856.882812 481.425781 C 857.796875 481.300781 858.707031 481.171875 859.648438 481.039062 C 861.683594 479.285156 861.683594 479.285156 862.847656 477.035156 C 862.984375 474.523438 862.984375 474.523438 862.046875 472.234375 C 860.753906 470.792969 860.753906 470.792969 858.847656 469.832031 C 856.222656 469.542969 856.222656 469.542969 853.445312 469.683594 Z M 848.441406 469.832031 "/><path style=" stroke:none;fill-rule:nonzero;fill:#0bc0ca;fill-opacity:1;" d="M 689.960938 465.828125 L 696.363281 465.828125 C 698.417969 470.714844 700.46875 475.601562 702.519531 480.492188 L 704.613281 485.480469 C 705.617188 487.867188 706.617188 490.253906 707.617188 492.640625 L 708.574219 494.910156 L 709.449219 496.996094 L 710.222656 498.84375 C 710.769531 500.246094 710.769531 500.246094 710.769531 501.046875 L 705.167969 501.046875 L 700.363281 490.640625 L 685.957031 490.640625 L 681.15625 501.046875 L 675.550781 501.046875 C 680.230469 489.253906 684.980469 477.5 689.960938 465.828125 M 692.359375 473.035156 L 687.558594 485.039062 L 698.765625 485.039062 L 693.960938 473.035156 Z M 692.359375 473.035156 "/><path style=" stroke:none;fill-rule:nonzero;fill:#0ec0cb;fill-opacity:1;" d="M 846.039062 414.605469 L 851.644531 414.605469 C 854.90625 421.535156 857.996094 428.542969 860.910156 435.625 C 861.558594 437.195312 862.214844 438.765625 862.871094 440.339844 C 863.285156 441.34375 863.703125 442.347656 864.117188 443.351562 L 865.246094 446.074219 C 866.050781 448.222656 866.050781 448.222656 866.050781 449.820312 L 860.449219 449.820312 C 859.777344 448.257812 859.109375 446.6875 858.445312 445.121094 L 857.320312 442.472656 C 856.445312 440.21875 856.445312 440.21875 856.445312 438.617188 L 841.238281 438.617188 L 838.835938 445.820312 C 838.320312 447.160156 837.789062 448.496094 837.234375 449.820312 L 831.632812 449.820312 C 833.496094 443.886719 835.796875 438.160156 838.1875 432.421875 C 838.835938 430.859375 839.484375 429.292969 840.132812 427.726562 C 841.976562 423.28125 843.84375 418.894531 846.039062 414.605469 M 848.441406 421.808594 C 847.636719 423.640625 846.835938 425.476562 846.039062 427.3125 L 845.347656 428.890625 C 844.070312 431.648438 844.070312 431.648438 843.640625 434.613281 L 854.042969 434.613281 C 853.378906 431.277344 852.613281 428.984375 851.195312 425.960938 L 850.089844 423.59375 L 849.242188 421.808594 Z M 848.441406 421.808594 "/><path style=" stroke:none;fill-rule:nonzero;fill:#0bc0ca;fill-opacity:1;" d="M 720.375 414.605469 L 726.777344 414.605469 L 732.957031 429.589844 C 738.511719 443.0625 738.511719 443.0625 741.1875 449.820312 L 735.582031 449.820312 L 730.78125 439.417969 L 716.371094 439.417969 L 711.570312 449.820312 L 705.96875 449.820312 C 710.640625 438.027344 715.46875 426.304688 720.375 414.605469 M 722.777344 421.808594 C 721.972656 423.640625 721.171875 425.476562 720.375 427.3125 L 719.679688 428.890625 C 718.40625 431.648438 718.40625 431.648438 717.972656 434.613281 L 729.179688 434.613281 L 724.378906 421.808594 Z M 722.777344 421.808594 "/><path style=" stroke:none;fill-rule:nonzero;fill:#03bec9;fill-opacity:1;" d="M 805.21875 465.828125 L 826.832031 465.828125 L 826.832031 469.832031 L 810.023438 469.832031 L 810.023438 480.238281 L 824.429688 480.238281 L 824.429688 484.238281 L 810.023438 484.238281 L 810.023438 496.246094 L 826.832031 496.246094 L 826.832031 501.046875 L 805.21875 501.046875 Z M 805.21875 465.828125 "/><path style=" stroke:none;fill-rule:nonzero;fill:#0bc0ca;fill-opacity:1;" d="M 894.867188 415.40625 C 896.554688 416.625 897.5625 417.753906 898.867188 419.40625 L 894.867188 421.808594 L 893.214844 420.609375 C 890.875 419.234375 890.875 419.234375 888.011719 419.105469 C 885.273438 419.207031 885.273438 419.207031 883.308594 420.609375 L 882.058594 421.808594 C 881.964844 424.144531 881.964844 424.144531 882.859375 426.609375 C 885.007812 427.691406 886.789062 428.398438 889.0625 429.0625 C 892.617188 430.140625 895.179688 430.992188 898.03125 433.460938 C 899.667969 435.414062 899.667969 435.414062 900.46875 437.015625 C 900.691406 439.960938 900.722656 442.046875 899.519531 444.769531 C 897.878906 446.863281 896.261719 448.324219 894.066406 449.820312 C 891.203125 450.96875 888.304688 450.871094 885.261719 450.621094 C 881.964844 449.480469 878.941406 448.304688 876.457031 445.820312 L 876.457031 443.417969 L 880.457031 441.816406 L 880.457031 443.417969 C 884.421875 445.003906 887.453125 445.429688 891.664062 445.019531 C 893.816406 443.867188 893.816406 443.867188 894.867188 441.816406 C 894.75 439.257812 894.75 439.257812 894.066406 437.015625 C 893.195312 436.710938 893.195312 436.710938 892.308594 436.398438 C 881.738281 432.636719 881.738281 432.636719 878.15625 429.210938 C 876.457031 426.609375 876.457031 426.609375 876.007812 423.808594 C 876.457031 421.007812 876.457031 421.007812 877.605469 418.40625 C 879.523438 416.347656 880.445312 415.617188 882.960938 414.605469 C 887.140625 413.445312 890.839844 413.820312 894.867188 415.40625 "/><path style=" stroke:none;fill-rule:nonzero;fill:#0ec0cb;fill-opacity:1;" d="M 602.042969 465.660156 C 603.6875 466.441406 605.214844 467.199219 606.714844 468.230469 L 608.316406 470.632812 L 605.914062 472.234375 C 604.085938 471.957031 602.765625 471.457031 601.113281 470.632812 C 599.425781 470.445312 599.425781 470.445312 597.5625 470.433594 L 595.664062 470.371094 C 593.855469 470.5 593.855469 470.5 592.488281 471.683594 L 591.507812 473.035156 C 591.308594 475.535156 591.308594 475.535156 591.507812 477.835938 L 592.976562 478.21875 C 598.113281 479.652344 602.988281 481.375 607.515625 484.238281 C 609.21875 486.140625 609.21875 486.140625 609.917969 488.242188 C 610.269531 490.992188 610.269531 490.992188 609.917969 493.84375 C 608.539062 496.5 607.335938 498.195312 604.914062 499.957031 C 601.5625 501.617188 598.59375 501.464844 594.910156 501.398438 C 591.628906 500.957031 589.566406 499.871094 586.941406 497.921875 L 585.90625 497.046875 L 586.707031 493.84375 C 588.105469 493.292969 588.105469 493.292969 589.90625 493.042969 L 591.308594 494.144531 C 593.160156 495.480469 594.054688 495.757812 596.261719 496.09375 C 598.542969 496.316406 599.65625 496.199219 601.914062 495.496094 L 603.515625 494.644531 L 604.316406 489.042969 C 600.527344 486.601562 596.585938 485.222656 592.355469 483.742188 C 589.816406 482.597656 588.429688 481.605469 586.707031 479.4375 C 586.125 477.035156 585.785156 475.425781 585.90625 473.035156 C 586.871094 470.335938 587.769531 468.730469 589.855469 466.78125 C 593.597656 464.628906 597.933594 464.160156 602.042969 465.660156 "/><path style=" stroke:none;fill-rule:nonzero;fill:#e42637;fill-opacity:1;" d="M 866.351562 293.246094 C 868.753906 293.34375 870.449219 293.550781 872.613281 294.601562 C 874.679688 296.1875 876.042969 297.769531 877.261719 300.066406 C 877.859375 301.796875 878.09375 303.121094 878.058594 304.953125 C 877.40625 307.425781 876.429688 309.339844 874.855469 311.355469 C 872.703125 312.921875 871.117188 313.605469 868.488281 313.972656 C 865.628906 314.117188 863.707031 313.777344 860.996094 312.753906 C 858.847656 311.355469 858.847656 311.355469 857.394531 310.054688 C 855.925781 307.113281 855.550781 304.222656 855.644531 300.949219 C 856.632812 298.480469 857.917969 297.097656 859.648438 295.097656 C 862.164062 293.683594 863.511719 293.414062 866.351562 293.246094 "/><path style=" stroke:none;fill-rule:nonzero;fill:#0b778b;fill-opacity:1;" d="M 559.492188 377.785156 L 561.09375 380.988281 L 560.328125 382.117188 C 549.3125 398.421875 538.300781 414.734375 527.40625 431.121094 C 520.9375 440.835938 514.40625 450.507812 507.816406 460.136719 C 506.890625 461.496094 505.972656 462.859375 505.0625 464.230469 C 502.988281 463.414062 501.925781 462.707031 500.523438 460.949219 L 499.203125 458.867188 L 497.71875 456.550781 L 496.160156 454.074219 C 495.074219 452.382812 493.992188 450.691406 492.910156 449.003906 L 491.320312 446.507812 C 489.476562 443.640625 487.605469 440.792969 485.703125 437.964844 L 484.78125 436.585938 C 482.9375 433.828125 481.085938 431.078125 479.226562 428.335938 L 477.878906 426.335938 C 477.007812 425.039062 476.132812 423.746094 475.253906 422.457031 L 474.066406 420.691406 L 473 419.121094 C 472.246094 417.804688 472.246094 417.804688 472.246094 416.207031 L 474.648438 417.007812 C 475.902344 418.652344 477.09375 420.34375 478.214844 422.082031 L 479.246094 423.644531 C 480.335938 425.296875 481.417969 426.953125 482.5 428.613281 C 483.21875 429.703125 483.941406 430.796875 484.660156 431.886719 C 487.171875 435.703125 489.675781 439.523438 492.179688 443.34375 L 493.464844 445.292969 L 494.539062 446.925781 C 495.488281 448.34375 495.488281 448.34375 497.058594 449.820312 C 498.757812 451.773438 498.757812 451.773438 500.261719 453.824219 L 500.261719 456.226562 L 501.859375 456.226562 L 501.859375 458.625 L 505.0625 458.625 C 506.414062 457.351562 506.414062 457.351562 507.546875 455.574219 L 508.921875 453.585938 L 510.367188 451.421875 C 510.863281 450.699219 511.359375 449.972656 511.867188 449.226562 C 515.183594 444.339844 518.394531 439.390625 521.433594 434.328125 C 523.210938 431.390625 525.125 428.613281 527.164062 425.847656 C 531.421875 420.050781 535.363281 414.050781 539.332031 408.050781 C 541.1875 405.246094 543.046875 402.445312 544.90625 399.644531 C 547.957031 395.0625 551.0625 390.527344 554.203125 386.007812 C 556.066406 383.320312 557.847656 380.617188 559.492188 377.785156 "/><path style=" stroke:none;fill-rule:nonzero;fill:#10c1cb;fill-opacity:1;" d="M 814.023438 414.605469 C 816.414062 415.664062 818.410156 416.949219 820.425781 418.605469 L 818.027344 422.609375 L 816.878906 421.878906 C 814.527344 420.527344 812.488281 419.488281 809.761719 419.230469 C 806.476562 419.457031 804.566406 420.117188 801.71875 421.859375 C 799.617188 424.207031 798.480469 425.957031 797.535156 428.921875 C 796.808594 432.738281 797.652344 435.960938 798.914062 439.617188 C 800.566406 442.039062 801.914062 443.164062 804.503906 444.464844 C 807.007812 445.378906 808.992188 445.355469 811.621094 445.019531 C 814.171875 443.980469 814.171875 443.980469 816.425781 442.617188 L 819.625 441.015625 L 822.027344 444.21875 C 819.558594 446.542969 817.207031 448.621094 814.175781 450.171875 C 810.492188 450.820312 807.257812 450.671875 803.617188 449.820312 C 800.328125 448.523438 798.019531 446.804688 795.78125 444.066406 C 793.835938 441.261719 792.238281 438.804688 791.613281 435.414062 C 791.242188 430.703125 792.085938 426.871094 794.011719 422.609375 C 795.933594 419.703125 797.894531 417.675781 800.867188 415.90625 C 805.113281 414.003906 809.472656 413.867188 814.023438 414.605469 "/><path style=" stroke:none;fill-rule:nonzero;fill:#28c7d0;fill-opacity:1;" d="M 910.875 414.605469 L 934.886719 414.605469 L 934.886719 419.40625 L 925.28125 419.40625 L 925.28125 449.820312 L 919.679688 449.820312 L 919.679688 419.40625 L 910.875 419.40625 Z M 910.875 414.605469 "/><path style=" stroke:none;fill-rule:nonzero;fill:#e42637;fill-opacity:1;" d="M 881.257812 293.746094 C 891.015625 292.902344 891.015625 292.902344 895.128906 294.441406 C 896.417969 295.398438 896.417969 295.398438 898.066406 297.746094 C 898.519531 300.550781 898.519531 300.550781 898.066406 303.351562 L 896.765625 305.453125 L 895.667969 307.351562 C 896.195312 309.476562 896.195312 309.476562 897.265625 311.355469 L 898.066406 313.753906 C 895.867188 314.054688 895.867188 314.054688 893.265625 313.753906 C 892.175781 312.171875 891.109375 310.570312 890.0625 308.953125 C 887.925781 308.550781 887.925781 308.550781 886.0625 308.953125 L 885.261719 313.753906 L 881.257812 313.753906 C 881.101562 310.570312 880.953125 307.386719 880.808594 304.203125 L 880.671875 301.445312 L 880.554688 298.828125 L 880.441406 296.402344 L 880.457031 294.546875 Z M 782.808594 293.746094 C 784.617188 293.847656 784.617188 293.847656 786.808594 294.546875 C 788.777344 296.320312 788.777344 296.320312 790.660156 298.5 L 792.578125 300.671875 L 794.011719 302.550781 L 794.011719 304.152344 L 795.613281 304.152344 L 795.585938 302.078125 L 795.5625 299.398438 L 795.535156 296.726562 L 795.613281 294.546875 L 796.414062 293.746094 L 800.417969 293.746094 L 800.417969 312.957031 L 796.414062 313.753906 L 794.71875 311.683594 L 792.511719 309.003906 L 791.394531 307.636719 C 789.40625 305.136719 789.40625 305.136719 786.808594 303.351562 L 786.808594 313.753906 L 782.007812 313.753906 C 781.984375 310.570312 781.96875 307.386719 781.957031 304.203125 L 781.9375 301.445312 L 781.929688 298.828125 L 781.914062 296.402344 L 782.007812 294.546875 Z M 782.808594 293.746094 "/><path style=" stroke:none;fill-rule:nonzero;fill:#04bec9;fill-opacity:1;" d="M 766 465.828125 L 790.011719 465.828125 L 790.011719 469.832031 L 780.40625 469.832031 L 780.40625 501.046875 L 775.605469 501.046875 L 775.605469 469.832031 L 766 469.832031 Z M 766 465.828125 "/><path style=" stroke:none;fill-rule:nonzero;fill:#047388;fill-opacity:1;" d="M 633.929688 333.765625 L 635.53125 333.765625 L 635.53125 399.398438 L 579.5 399.398438 L 580.300781 383.390625 L 581.902344 383.390625 L 581.902344 396.996094 L 633.929688 397.796875 Z M 633.929688 333.765625 "/><path style=" stroke:none;fill-rule:nonzero;fill:#e42637;fill-opacity:1;" d="M 902.070312 293.746094 L 906.070312 293.746094 C 906.972656 299.847656 906.972656 299.847656 906.070312 302.550781 L 907.671875 302.550781 L 908.308594 301.136719 C 909.921875 298.148438 912.203125 295.828125 914.875 293.746094 C 917.226562 293.394531 917.226562 293.394531 918.878906 293.746094 C 917.398438 297 915.945312 299.355469 913.273438 301.75 C 914.339844 305.269531 916.210938 307.417969 918.683594 310.035156 L 919.679688 311.355469 L 919.679688 313.753906 C 917.128906 313.65625 917.128906 313.65625 914.074219 312.957031 C 912.335938 311.488281 911.367188 310.074219 910.074219 308.152344 L 910.074219 306.550781 L 907.671875 307.351562 C 907.03125 308.851562 907.03125 308.851562 906.722656 310.605469 C 906.59375 311.191406 906.46875 311.777344 906.335938 312.382812 L 906.070312 313.753906 L 902.070312 313.753906 C 901.097656 311.8125 901.164062 310.546875 901.164062 308.378906 L 901.160156 306.117188 L 901.167969 303.75 L 901.160156 301.382812 L 901.164062 297.046875 C 901.269531 295.347656 901.269531 295.347656 902.070312 293.746094 M 759.59375 293.746094 C 760.929688 293.710938 762.261719 293.710938 763.597656 293.746094 L 764.398438 294.546875 C 764.523438 295.617188 764.597656 296.699219 764.652344 297.777344 L 764.753906 299.738281 L 764.847656 301.800781 L 764.953125 303.871094 C 765.039062 305.566406 765.121094 307.257812 765.199219 308.953125 L 770.800781 308.953125 C 772.683594 305.984375 772.746094 302.960938 772.902344 299.546875 L 772.996094 297.855469 C 773.070312 296.488281 773.136719 295.117188 773.203125 293.746094 C 774.535156 293.710938 775.871094 293.710938 777.203125 293.746094 L 778.003906 294.546875 C 778.128906 296.609375 778.191406 298.636719 778.203125 300.699219 L 778.253906 302.417969 C 778.277344 305.324219 778.023438 307.304688 776.992188 310.070312 C 775.605469 312.15625 775.605469 312.15625 774.074219 313.238281 C 771.101562 314.15625 768.269531 314.101562 765.199219 313.757812 C 762.847656 312.855469 762.847656 312.855469 761.195312 311.355469 C 759.507812 307.445312 759.398438 304.015625 759.496094 299.847656 L 759.515625 298.066406 C 759.535156 296.625 759.566406 295.1875 759.59375 293.746094 "/><path style=" stroke:none;fill-rule:nonzero;fill:#d62333;fill-opacity:1;" d="M 739.585938 293.746094 L 743.585938 293.746094 C 744.488281 299.847656 744.488281 299.847656 743.585938 302.550781 L 745.289062 300.847656 L 746.398438 299.757812 C 747.210938 298.933594 747.996094 298.085938 748.753906 297.214844 C 749.914062 295.925781 751 294.78125 752.390625 293.746094 C 755.09375 293.445312 755.09375 293.445312 757.195312 293.746094 L 757.195312 295.347656 L 755.59375 295.347656 L 754.992188 296.746094 C 753.859375 298.789062 752.492188 300.164062 750.789062 301.75 C 751.855469 305.269531 753.726562 307.417969 756.199219 310.035156 L 757.195312 311.355469 L 757.195312 313.753906 C 755.09375 314.105469 755.09375 314.105469 752.390625 313.753906 C 750.480469 312.113281 748.945312 310.277344 747.589844 308.152344 L 747.589844 306.550781 L 745.1875 307.351562 C 744.546875 308.851562 744.546875 308.851562 744.238281 310.605469 C 744.109375 311.191406 743.984375 311.777344 743.851562 312.382812 L 743.585938 313.753906 L 739.585938 313.753906 Z M 739.585938 293.746094 "/><path style=" stroke:none;fill-rule:nonzero;fill:#e42637;fill-opacity:1;" d="M 725.933594 293.378906 C 726.773438 293.398438 727.613281 293.421875 728.480469 293.445312 L 731.035156 293.476562 L 733.179688 293.746094 L 734.78125 295.347656 L 734.78125 297.746094 C 732.582031 298.480469 731.292969 298.636719 729.03125 298.597656 L 725.976562 298.546875 L 725.175781 300.949219 L 726.816406 301.160156 C 730.265625 301.703125 732.609375 302.09375 735.382812 304.300781 L 736.382812 306.550781 C 735.984375 309.503906 735.984375 309.503906 734.78125 312.15625 C 733.015625 313.335938 731.746094 313.738281 729.628906 313.96875 L 727.578125 313.957031 L 725.527344 313.96875 C 723.46875 313.746094 722.152344 313.191406 720.375 312.15625 L 720.375 308.953125 L 730.78125 309.753906 L 730.78125 307.351562 L 728.910156 306.707031 L 726.476562 305.851562 L 724.058594 305.007812 C 721.976562 304.152344 721.976562 304.152344 720.375 302.550781 C 720.074219 299.847656 720.074219 299.847656 720.375 296.949219 C 722.113281 294.613281 723.03125 293.832031 725.933594 293.378906 M 926.839844 293.378906 C 927.679688 293.398438 928.519531 293.421875 929.382812 293.445312 L 931.941406 293.476562 L 934.085938 293.746094 L 935.6875 295.347656 L 934.886719 298.546875 L 926.882812 298.546875 L 926.082031 300.949219 L 927.71875 301.1875 C 930.902344 301.722656 933.480469 302.171875 936.238281 303.898438 C 937.289062 305.75 937.289062 305.75 937.339844 308.601562 C 936.488281 311.355469 936.488281 311.355469 934.886719 312.90625 C 931.617188 314.0625 928.714844 314.136719 925.28125 313.757812 C 922.832031 312.957031 922.832031 312.957031 921.28125 312.15625 L 921.28125 308.953125 L 923.148438 309.15625 L 925.582031 309.402344 L 928 309.65625 C 930.070312 309.921875 930.070312 309.921875 931.683594 308.953125 L 930.882812 306.554688 C 929.273438 306.027344 929.273438 306.027344 927.382812 305.804688 C 923.875 305.117188 923.875 305.117188 922.03125 303.550781 C 921.28125 301.75 921.28125 301.75 920.929688 299.347656 C 921.28125 296.949219 921.28125 296.949219 922.597656 295.214844 C 924.480469 293.746094 924.480469 293.746094 926.839844 293.378906 "/><path style=" stroke:none;fill-rule:nonzero;fill:#fb717a;fill-opacity:1;" d="M 641.132812 272.136719 L 641.933594 272.136719 L 642.734375 328.964844 L 644.335938 329.761719 L 644.335938 334.566406 L 705.96875 334.566406 L 705.96875 336.167969 L 641.132812 336.167969 Z M 641.132812 272.136719 "/><path style=" stroke:none;fill-rule:nonzero;fill:#006174;fill-opacity:1;" d="M 865.203125 297.46875 C 866.902344 297.398438 866.902344 297.398438 870.054688 297.746094 C 871.605469 298.75 871.605469 298.75 872.453125 300.148438 C 873.105469 301.601562 873.105469 301.601562 873.253906 303.351562 C 872.605469 305.851562 872.605469 305.851562 871.652344 308.152344 L 870.054688 309.753906 C 867.644531 310.027344 865.972656 310.199219 863.648438 309.753906 C 861.648438 308.050781 861.648438 308.050781 860.449219 305.75 C 860.046875 303.300781 860.046875 303.300781 860.449219 300.949219 C 861.777344 298.847656 862.71875 297.914062 865.203125 297.46875 M 698.765625 305.75 L 700.363281 305.75 C 700.746094 309.03125 700.902344 312.085938 700.363281 315.355469 C 698.996094 317.257812 697.738281 318.21875 695.746094 319.429688 C 693.203125 320.46875 691.070312 320.417969 688.359375 320.160156 C 686.507812 320.503906 686.507812 320.503906 685.15625 320.960938 L 685.957031 318.558594 C 687.476562 317.527344 689.027344 316.542969 690.609375 315.605469 C 694.132812 313.363281 694.132812 313.363281 696.910156 310.3125 C 697.871094 308.414062 697.871094 308.414062 698.765625 305.75 M 647.535156 306.550781 C 649.167969 308.066406 649.902344 308.851562 650.636719 311.003906 L 651.539062 312.957031 C 652.871094 313.496094 654.203125 314.03125 655.542969 314.554688 C 656.855469 315.480469 658.140625 316.449219 659.394531 317.457031 L 661.308594 318.988281 L 662.746094 320.160156 C 660.34375 320.960938 660.34375 320.960938 658.394531 320.660156 L 656.339844 320.160156 L 654.800781 319.820312 C 652.445312 319.164062 650.652344 318.226562 648.671875 316.804688 C 647.535156 315.355469 647.535156 315.355469 647.175781 313.132812 C 647.179688 310.933594 647.300781 308.738281 647.535156 306.550781 "/><path style=" stroke:none;fill-rule:nonzero;fill:#4898a8;fill-opacity:1;" d="M 559.492188 288.945312 L 561.09375 292.144531 L 558.691406 292.945312 L 558.390625 295.246094 L 557.890625 297.746094 L 556.289062 299.347656 L 555.488281 300.949219 C 554.6875 302.550781 554.6875 302.550781 553.085938 304.152344 L 551.4375 304.800781 L 549.886719 305.75 C 549.359375 307.773438 549.359375 307.773438 549.085938 309.753906 L 547.484375 310.554688 L 546.683594 312.957031 C 545.035156 313.90625 545.035156 313.90625 543.484375 314.554688 C 544.671875 311.191406 546.402344 308.367188 548.390625 305.433594 L 549.355469 304 C 550.363281 302.496094 551.375 300.996094 552.386719 299.5 L 554.449219 296.429688 C 556.125 293.933594 557.804688 291.4375 559.492188 288.945312 "/><path style=" stroke:none;fill-rule:nonzero;fill:#e42637;fill-opacity:1;" d="M 678.753906 289.742188 L 679.554688 292.144531 C 678.785156 293.464844 678.785156 293.464844 677.652344 294.847656 C 676.214844 296.722656 675.542969 297.773438 674.902344 300.097656 L 674.75 301.75 L 673.148438 301.75 L 672.148438 299.199219 C 670.996094 296.46875 669.441406 294.429688 667.546875 292.144531 L 667.546875 290.542969 C 668.621094 290.789062 669.6875 291.054688 670.75 291.34375 L 671.550781 292.144531 C 673.882812 292.414062 673.882812 292.414062 676.351562 292.144531 C 677.855469 291.042969 677.855469 291.042969 678.753906 289.742188 "/><path style=" stroke:none;fill-rule:nonzero;fill:#006174;fill-opacity:1;" d="M 886.0625 297.746094 C 888.8125 297.597656 888.8125 297.597656 891.664062 297.746094 L 893.265625 299.347656 C 893.363281 301.449219 893.363281 301.449219 893.265625 303.351562 C 891.515625 304.25 891.515625 304.25 889.261719 304.953125 C 887.011719 304.25 887.011719 304.25 885.261719 303.351562 C 885.226562 301.75 885.230469 300.148438 885.261719 298.546875 Z M 886.0625 297.746094 "/><path style=" stroke:none;fill-rule:nonzero;fill:#127990;fill-opacity:1;" d="M 457.839844 394.59375 L 460.238281 395.394531 C 461.679688 397.265625 461.679688 397.265625 463.242188 399.699219 L 464.929688 402.304688 L 466.644531 405 L 468.304688 407.59375 C 469.625 409.660156 470.941406 411.730469 472.246094 413.804688 L 470.644531 415.40625 C 468.566406 412.175781 466.488281 408.945312 464.414062 405.710938 C 463.515625 404.316406 462.617188 402.917969 461.714844 401.523438 L 460.1875 399.148438 L 458.8125 397.003906 L 457.839844 395.394531 Z M 457.839844 394.59375 "/><path style=" stroke:none;fill-rule:nonzero;fill:#76b2bd;fill-opacity:1;" d="M 538.679688 320.160156 L 540.28125 321.757812 L 538.910156 323.777344 L 537.128906 326.410156 L 535.355469 329.027344 C 533.796875 331.285156 533.796875 331.285156 533.078125 333.765625 L 531.476562 333.765625 L 532.277344 336.167969 L 528.273438 336.96875 C 531.355469 331.097656 534.949219 325.632812 538.679688 320.160156 "/><path style=" stroke:none;fill-rule:nonzero;fill:#167d90;fill-opacity:1;" d="M 580.300781 383.390625 L 581.902344 383.390625 C 581.96875 385.605469 582.015625 387.824219 582.054688 390.042969 L 582.113281 391.949219 L 582.136719 393.785156 L 582.175781 395.472656 L 581.902344 396.996094 L 579.5 399.398438 Z M 580.300781 383.390625 "/><path style=" stroke:none;fill-rule:nonzero;fill:#036185;fill-opacity:1;" d="M 658.742188 301.75 C 660.195312 302.300781 660.195312 302.300781 661.945312 303.351562 C 663.34375 305.300781 663.34375 305.300781 664.347656 307.351562 L 664.347656 309.753906 C 662.398438 308.949219 661.191406 308.203125 659.742188 306.652344 L 658.742188 304.953125 Z M 658.742188 301.75 "/><path style=" stroke:none;fill-rule:nonzero;fill:#006174;fill-opacity:1;" d="M 687.558594 301.75 L 689.160156 301.75 C 688.84375 304.019531 688.4375 305.621094 687.257812 307.601562 L 685.957031 308.953125 L 683.554688 308.953125 C 684.824219 304.570312 684.824219 304.570312 686.355469 302.648438 Z M 687.558594 301.75 "/><path style=" stroke:none;fill-rule:nonzero;fill:#24859c;fill-opacity:1;" d="M 465.84375 405 C 467.730469 406.753906 469.058594 408.554688 470.394531 410.753906 L 471.453125 412.488281 L 472.246094 413.804688 L 470.644531 415.40625 C 469.835938 414.277344 469.035156 413.144531 468.242188 412.003906 L 466.894531 410.089844 C 465.84375 408.203125 465.84375 408.203125 465.84375 405 "/><path style=" stroke:none;fill-rule:nonzero;fill:#65a7b3;fill-opacity:1;" d="M 521.070312 346.570312 L 522.671875 348.171875 C 522.550781 349.734375 522.550781 349.734375 521.871094 351.375 C 520.566406 352.5625 520.566406 352.5625 519.019531 353.574219 L 517.464844 354.613281 L 516.269531 355.375 C 517.429688 352.085938 519.078125 349.425781 521.070312 346.570312 "/></g></svg>